<svg xmlns="http://www.w3.org/2000/svg" xmlns:xlink="http://www.w3.org/1999/xlink" width="500" zoomAndPan="magnify" viewBox="0 0 375 187.499995" height="250" preserveAspectRatio="xMidYMid meet" version="1.0"><defs><g/><clipPath id="10c0595e2d"><path d="M 40 31.128906 L 345.363281 31.128906 L 345.363281 75 L 40 75 Z M 40 31.128906 " clip-rule="nonzero"/></clipPath><clipPath id="fcccec6178"><path d="M 36.4375 69 L 139 69 L 139 93 L 36.4375 93 Z M 36.4375 69 " clip-rule="nonzero"/></clipPath></defs><g clip-path="url(#10c0595e2d)"><path fill="#ffffff" d="M 64.753906 62.351562 C 68.5625 61.636719 72.332031 60.691406 76.042969 59.539062 C 79.75 58.371094 83.414062 57.039062 87.039062 55.566406 C 90.664062 54.089844 94.261719 52.511719 97.867188 50.875 L 108.777344 45.882812 C 112.457031 44.214844 116.203125 42.566406 120.066406 41.007812 C 121.035156 40.625 121.996094 40.230469 122.984375 39.859375 L 124.457031 39.300781 L 125.945312 38.757812 C 126.933594 38.390625 127.953125 38.054688 128.957031 37.703125 C 129.460938 37.53125 129.976562 37.367188 130.484375 37.199219 C 130.996094 37.039062 131.5 36.863281 132.023438 36.710938 C 133.058594 36.398438 134.085938 36.078125 135.140625 35.792969 C 135.667969 35.648438 136.1875 35.496094 136.71875 35.359375 L 138.308594 34.960938 C 139.371094 34.695312 140.429688 34.417969 141.507812 34.199219 L 143.121094 33.851562 C 143.660156 33.742188 144.195312 33.617188 144.738281 33.527344 L 147.996094 32.941406 L 151.277344 32.453125 C 151.550781 32.414062 151.820312 32.371094 152.09375 32.335938 L 152.921875 32.238281 L 154.570312 32.046875 C 155.117188 31.984375 155.664062 31.90625 156.21875 31.863281 L 157.871094 31.71875 C 162.28125 31.332031 166.710938 31.152344 171.117188 31.195312 C 175.527344 31.242188 179.914062 31.457031 184.261719 31.851562 C 192.957031 32.632812 201.464844 34.105469 209.734375 36.007812 C 217.996094 37.9375 226.027344 40.308594 233.804688 43.035156 C 237.691406 44.398438 241.527344 45.832031 245.289062 47.363281 C 249.058594 48.886719 252.765625 50.484375 256.410156 52.152344 C 248.609375 49.546875 240.75 47.082031 232.746094 44.964844 C 224.761719 42.824219 216.644531 41.011719 208.445312 39.605469 C 204.347656 38.898438 200.21875 38.332031 196.085938 37.867188 C 194.019531 37.625 191.945312 37.445312 189.875 37.265625 L 186.765625 37.054688 C 185.730469 36.984375 184.691406 36.953125 183.65625 36.898438 C 179.511719 36.730469 175.371094 36.6875 171.253906 36.832031 L 168.171875 36.972656 C 167.148438 37.035156 166.125 37.117188 165.105469 37.191406 L 164.339844 37.246094 L 162.054688 37.46875 C 161.546875 37.519531 161.035156 37.558594 160.53125 37.621094 L 159.019531 37.808594 L 157.507812 38 C 157 38.058594 156.507812 38.148438 156.003906 38.222656 L 154.507812 38.457031 L 153.757812 38.574219 C 153.507812 38.613281 153.265625 38.664062 153.015625 38.707031 L 150.054688 39.261719 L 147.132812 39.902344 C 146.640625 40 146.164062 40.132812 145.683594 40.253906 L 144.238281 40.613281 C 143.273438 40.839844 142.332031 41.125 141.386719 41.394531 L 139.96875 41.800781 C 139.496094 41.9375 139.03125 42.09375 138.566406 42.238281 C 137.628906 42.523438 136.710938 42.847656 135.78125 43.160156 C 128.390625 45.714844 121.324219 48.984375 114.234375 52.417969 C 107.144531 55.851562 100.007812 59.472656 92.351562 62.734375 C 90.886719 63.359375 89.402344 63.964844 87.898438 64.558594 C 92.429688 64.90625 96.980469 65.167969 101.542969 65.363281 L 105.871094 65.519531 L 110.210938 65.625 C 111.65625 65.667969 113.105469 65.667969 114.550781 65.6875 L 116.722656 65.710938 C 117.449219 65.71875 118.171875 65.710938 118.898438 65.710938 C 124.695312 65.738281 130.503906 65.617188 136.316406 65.441406 C 142.128906 65.273438 147.949219 65.003906 153.769531 64.679688 C 159.59375 64.355469 165.421875 63.984375 171.253906 63.554688 C 182.914062 62.71875 194.59375 61.707031 206.304688 60.722656 C 218.015625 59.734375 229.761719 58.75 241.558594 57.953125 L 245.980469 57.660156 C 247.453125 57.5625 248.933594 57.46875 250.410156 57.378906 C 253.367188 57.207031 256.332031 57.054688 259.300781 56.921875 C 260.785156 56.851562 262.273438 56.800781 263.761719 56.738281 L 268.226562 56.597656 C 269.71875 56.570312 271.210938 56.539062 272.703125 56.523438 L 274.945312 56.507812 C 275.691406 56.5 276.4375 56.496094 277.1875 56.503906 C 278.679688 56.515625 280.171875 56.511719 281.671875 56.546875 L 283.914062 56.589844 C 284.660156 56.609375 285.410156 56.636719 286.15625 56.664062 L 288.398438 56.75 L 290.640625 56.867188 C 292.132812 56.9375 293.625 57.050781 295.117188 57.15625 C 301.082031 57.585938 307.011719 58.308594 312.84375 59.332031 C 318.675781 60.371094 324.386719 61.746094 329.875 63.492188 C 335.359375 65.238281 340.625 67.34375 345.488281 69.863281 C 334.976562 65.8125 323.640625 63.285156 312.152344 62.027344 C 300.644531 60.75 288.976562 60.722656 277.371094 61.25 C 276.648438 61.28125 275.921875 61.316406 275.195312 61.359375 L 273.015625 61.484375 C 271.566406 61.570312 270.113281 61.679688 268.664062 61.769531 L 264.308594 62.09375 C 262.859375 62.21875 261.40625 62.332031 259.957031 62.460938 C 257.050781 62.71875 254.148438 62.992188 251.242188 63.289062 C 248.339844 63.570312 245.425781 63.878906 242.519531 64.179688 C 230.886719 65.417969 219.253906 66.753906 207.585938 68.054688 C 184.25 70.648438 160.714844 73.082031 136.84375 74.003906 C 124.917969 74.472656 112.914062 74.535156 100.902344 74.042969 C 94.902344 73.777344 88.898438 73.410156 82.910156 72.84375 C 76.925781 72.277344 70.964844 71.550781 65.039062 70.660156 L 40.300781 66.945312 Z M 64.753906 62.351562 " fill-opacity="1" fill-rule="nonzero"/></g><g clip-path="url(#fcccec6178)"><path fill="#ffffff" d="M 130.398438 87.664062 C 121.179688 89.679688 111.828125 91.167969 102.429688 92.027344 C 90.644531 93.109375 78.636719 93.261719 66.921875 91.371094 C 61.226562 90.449219 55.582031 89.027344 50.242188 86.816406 C 45.867188 85.003906 37.578125 82.054688 36.785156 76.609375 C 36.507812 74.683594 36.433594 71.761719 38.859375 70.257812 C 41.984375 68.316406 46.179688 70.273438 49.105469 71.386719 C 52.601562 72.714844 56.046875 74.128906 59.824219 75.160156 C 64.539062 76.449219 69.414062 77.523438 74.339844 78.480469 C 79.890625 79.554688 85.546875 80.519531 91.257812 81.242188 C 88.4375 81.707031 83.757812 82.339844 81.222656 82.65625 C 78.195312 83.03125 75.152344 83.363281 72.089844 83.628906 C 68.875 83.90625 65.546875 84.117188 62.21875 84.226562 C 77.03125 87.199219 102.257812 89.804688 138.945312 85.59375 C 136.0625 86.332031 133.179688 87.054688 130.398438 87.664062 Z M 130.398438 87.664062 " fill-opacity="1" fill-rule="nonzero"/></g><g fill="#ffffff" fill-opacity="1"><g transform="translate(33.790275, 128.726879)"><g><path d="M 18.515625 -19.203125 C 18.554688 -20.296875 18.234375 -21.140625 17.546875 -21.734375 C 16.859375 -22.335938 15.832031 -22.640625 14.46875 -22.640625 C 13.0625 -22.640625 11.941406 -22.351562 11.109375 -21.78125 C 10.273438 -21.21875 9.78125 -20.5 9.625 -19.625 C 9.4375 -18.65625 9.726562 -17.914062 10.5 -17.40625 C 11.28125 -16.90625 12.234375 -16.523438 13.359375 -16.265625 L 15.6875 -15.6875 C 17.1875 -15.332031 18.488281 -14.816406 19.59375 -14.140625 C 20.707031 -13.472656 21.53125 -12.613281 22.0625 -11.5625 C 22.59375 -10.507812 22.726562 -9.234375 22.46875 -7.734375 C 22.050781 -5.253906 20.800781 -3.28125 18.71875 -1.8125 C 16.644531 -0.34375 13.953125 0.390625 10.640625 0.390625 C 7.367188 0.390625 4.875 -0.359375 3.15625 -1.859375 C 1.4375 -3.367188 0.785156 -5.582031 1.203125 -8.5 L 6.734375 -8.5 C 6.597656 -7.132812 6.960938 -6.109375 7.828125 -5.421875 C 8.691406 -4.742188 9.867188 -4.40625 11.359375 -4.40625 C 12.828125 -4.40625 14.046875 -4.710938 15.015625 -5.328125 C 15.984375 -5.953125 16.546875 -6.753906 16.703125 -7.734375 C 16.859375 -8.648438 16.578125 -9.359375 15.859375 -9.859375 C 15.140625 -10.359375 14.070312 -10.78125 12.65625 -11.125 L 9.828125 -11.859375 C 7.648438 -12.421875 6 -13.289062 4.875 -14.46875 C 3.757812 -15.65625 3.359375 -17.242188 3.671875 -19.234375 C 3.953125 -20.878906 4.632812 -22.3125 5.71875 -23.53125 C 6.8125 -24.757812 8.1875 -25.710938 9.84375 -26.390625 C 11.507812 -27.078125 13.328125 -27.421875 15.296875 -27.421875 C 17.304688 -27.421875 19 -27.078125 20.375 -26.390625 C 21.757812 -25.703125 22.769531 -24.738281 23.40625 -23.5 C 24.039062 -22.269531 24.234375 -20.835938 23.984375 -19.203125 Z M 18.515625 -19.203125 "/></g></g></g><g fill="#ffffff" fill-opacity="1"><g transform="translate(58.143231, 128.726879)"><g><path d="M 5.328125 0 L -0.8125 0 L 13.03125 -27.0625 L 20.390625 -27.0625 L 25.234375 0 L 19.109375 0 L 18.125 -6.171875 L 8.359375 -6.171875 Z M 10.5625 -10.640625 L 17.421875 -10.640625 L 15.8125 -20.875 L 15.609375 -20.875 Z M 10.5625 -10.640625 "/></g></g></g><g fill="#ffffff" fill-opacity="1"><g transform="translate(85.956313, 128.726879)"><g><path d="M 5.15625 -27.0625 L 12.203125 -27.0625 L 16.65625 -8.875 L 16.96875 -8.875 L 27.421875 -27.0625 L 34.484375 -27.0625 L 29.984375 0 L 24.4375 0 L 27.375 -17.609375 L 27.140625 -17.609375 L 17.25 -0.125 L 13.46875 -0.125 L 9.390625 -17.671875 L 9.171875 -17.671875 L 6.203125 0 L 0.65625 0 Z M 5.15625 -27.0625 "/></g></g></g><g fill="#ffffff" fill-opacity="1"><g transform="translate(119.976489, 128.726879)"><g><path d="M 5.328125 0 L -0.8125 0 L 13.03125 -27.0625 L 20.390625 -27.0625 L 25.234375 0 L 19.109375 0 L 18.125 -6.171875 L 8.359375 -6.171875 Z M 10.5625 -10.640625 L 17.421875 -10.640625 L 15.8125 -20.875 L 15.609375 -20.875 Z M 10.5625 -10.640625 "/></g></g></g><g fill="#ffffff" fill-opacity="1"><g transform="translate(147.789571, 128.726879)"><g><path d="M 0.65625 0 L 5.15625 -27.0625 L 15.828125 -27.0625 C 18.898438 -27.0625 21.148438 -26.257812 22.578125 -24.65625 C 24.003906 -23.050781 24.5 -20.90625 24.0625 -18.21875 C 23.757812 -16.363281 23.082031 -14.78125 22.03125 -13.46875 C 20.988281 -12.15625 19.644531 -11.171875 18 -10.515625 L 22 0 L 15.6875 0 L 12.140625 -9.59375 L 7.984375 -9.59375 L 6.375 0 Z M 8.75 -14.1875 L 12.625 -14.1875 C 15.875 -14.1875 17.722656 -15.53125 18.171875 -18.21875 C 18.617188 -20.988281 17.222656 -22.375 13.984375 -22.375 L 10.125 -22.375 Z M 8.75 -14.1875 "/></g></g></g><g fill="#ffffff" fill-opacity="1"><g transform="translate(172.419867, 128.726879)"><g><path d="M 5.328125 0 L -0.8125 0 L 13.03125 -27.0625 L 20.390625 -27.0625 L 25.234375 0 L 19.109375 0 L 18.125 -6.171875 L 8.359375 -6.171875 Z M 10.5625 -10.640625 L 17.421875 -10.640625 L 15.8125 -20.875 L 15.609375 -20.875 Z M 10.5625 -10.640625 "/></g></g></g><g fill="#ffffff" fill-opacity="1"><g transform="translate(200.232948, 128.726879)"><g><path d="M 18.515625 -19.203125 C 18.554688 -20.296875 18.234375 -21.140625 17.546875 -21.734375 C 16.859375 -22.335938 15.832031 -22.640625 14.46875 -22.640625 C 13.0625 -22.640625 11.941406 -22.351562 11.109375 -21.78125 C 10.273438 -21.21875 9.78125 -20.5 9.625 -19.625 C 9.4375 -18.65625 9.726562 -17.914062 10.5 -17.40625 C 11.28125 -16.90625 12.234375 -16.523438 13.359375 -16.265625 L 15.6875 -15.6875 C 17.1875 -15.332031 18.488281 -14.816406 19.59375 -14.140625 C 20.707031 -13.472656 21.53125 -12.613281 22.0625 -11.5625 C 22.59375 -10.507812 22.726562 -9.234375 22.46875 -7.734375 C 22.050781 -5.253906 20.800781 -3.28125 18.71875 -1.8125 C 16.644531 -0.34375 13.953125 0.390625 10.640625 0.390625 C 7.367188 0.390625 4.875 -0.359375 3.15625 -1.859375 C 1.4375 -3.367188 0.785156 -5.582031 1.203125 -8.5 L 6.734375 -8.5 C 6.597656 -7.132812 6.960938 -6.109375 7.828125 -5.421875 C 8.691406 -4.742188 9.867188 -4.40625 11.359375 -4.40625 C 12.828125 -4.40625 14.046875 -4.710938 15.015625 -5.328125 C 15.984375 -5.953125 16.546875 -6.753906 16.703125 -7.734375 C 16.859375 -8.648438 16.578125 -9.359375 15.859375 -9.859375 C 15.140625 -10.359375 14.070312 -10.78125 12.65625 -11.125 L 9.828125 -11.859375 C 7.648438 -12.421875 6 -13.289062 4.875 -14.46875 C 3.757812 -15.65625 3.359375 -17.242188 3.671875 -19.234375 C 3.953125 -20.878906 4.632812 -22.3125 5.71875 -23.53125 C 6.8125 -24.757812 8.1875 -25.710938 9.84375 -26.390625 C 11.507812 -27.078125 13.328125 -27.421875 15.296875 -27.421875 C 17.304688 -27.421875 19 -27.078125 20.375 -26.390625 C 21.757812 -25.703125 22.769531 -24.738281 23.40625 -23.5 C 24.039062 -22.269531 24.234375 -20.835938 23.984375 -19.203125 Z M 18.515625 -19.203125 "/></g></g></g><g fill="#ffffff" fill-opacity="1"><g transform="translate(224.585905, 128.726879)"><g><path d="M 10.875 -27.0625 L 6.375 0 L 0.65625 0 L 5.15625 -27.0625 Z M 10.875 -27.0625 "/></g></g></g><g fill="#ffffff" fill-opacity="1"><g transform="translate(235.019109, 128.726879)"><g><path d="M 27.78125 -27.0625 L 23.296875 0 L 18.34375 0 L 9.4375 -17.03125 L 9.21875 -17.03125 L 6.375 0 L 0.65625 0 L 5.15625 -27.0625 L 10.171875 -27.0625 L 19.046875 -10.046875 L 19.28125 -10.046875 L 22.09375 -27.0625 Z M 27.78125 -27.0625 "/></g></g></g><g fill="#ffffff" fill-opacity="1"><g transform="translate(262.356749, 128.726879)"><g><path d="M 21.640625 -18.3125 C 21.492188 -19.582031 21.039062 -20.570312 20.28125 -21.28125 C 19.519531 -22 18.40625 -22.359375 16.9375 -22.359375 C 15.550781 -22.359375 14.253906 -22.015625 13.046875 -21.328125 C 11.847656 -20.648438 10.828125 -19.65625 9.984375 -18.34375 C 9.140625 -17.03125 8.5625 -15.4375 8.25 -13.5625 C 7.789062 -10.726562 8.03125 -8.539062 8.96875 -7 C 9.914062 -5.457031 11.457031 -4.6875 13.59375 -4.6875 C 15.507812 -4.6875 17.117188 -5.179688 18.421875 -6.171875 C 19.734375 -7.160156 20.539062 -8.492188 20.84375 -10.171875 L 15.046875 -10.171875 L 15.765625 -14.484375 L 27.078125 -14.484375 L 26.5 -11.078125 C 26.125 -8.691406 25.289062 -6.644531 24 -4.9375 C 22.71875 -3.226562 21.117188 -1.914062 19.203125 -1 C 17.285156 -0.0820312 15.1875 0.375 12.90625 0.375 C 10.375 0.375 8.238281 -0.1875 6.5 -1.3125 C 4.769531 -2.4375 3.539062 -4.035156 2.8125 -6.109375 C 2.09375 -8.179688 1.96875 -10.644531 2.4375 -13.5 C 2.914062 -16.425781 3.882812 -18.925781 5.34375 -21 C 6.8125 -23.082031 8.59375 -24.671875 10.6875 -25.765625 C 12.78125 -26.867188 15.019531 -27.421875 17.40625 -27.421875 C 19.445312 -27.421875 21.226562 -27.03125 22.75 -26.25 C 24.269531 -25.476562 25.445312 -24.410156 26.28125 -23.046875 C 27.113281 -21.679688 27.503906 -20.101562 27.453125 -18.3125 Z M 21.640625 -18.3125 "/></g></g></g><g fill="#ffffff" fill-opacity="1"><g transform="translate(290.645271, 128.726879)"><g><path d="M 0.65625 0 L 5.15625 -27.0625 L 10.875 -27.0625 L 9.015625 -15.890625 L 20.640625 -15.890625 L 22.484375 -27.0625 L 28.1875 -27.0625 L 23.703125 0 L 18 0 L 19.84375 -11.171875 L 8.234375 -11.171875 L 6.375 0 Z M 0.65625 0 "/></g></g></g><g fill="#ffffff" fill-opacity="1"><g transform="translate(318.392318, 128.726879)"><g><path d="M 0.65625 0 L 5.15625 -27.0625 L 23.390625 -27.0625 L 22.59375 -22.34375 L 10.078125 -22.34375 L 9.015625 -15.890625 L 20.59375 -15.890625 L 19.796875 -11.171875 L 8.234375 -11.171875 L 7.171875 -4.71875 L 19.734375 -4.71875 L 18.9375 0 Z M 0.65625 0 "/></g></g></g><g fill="#ffffff" fill-opacity="1"><g transform="translate(198.950759, 151.339297)"><g><path d="M 2.0625 -10.828125 L 4.890625 -10.828125 L 6.671875 -3.546875 L 6.796875 -3.546875 L 10.984375 -10.828125 L 13.796875 -10.828125 L 12 0 L 9.78125 0 L 10.953125 -7.046875 L 10.859375 -7.046875 L 6.90625 -0.046875 L 5.390625 -0.046875 L 3.765625 -7.078125 L 3.671875 -7.078125 L 2.484375 0 L 0.265625 0 Z M 2.0625 -10.828125 "/></g></g></g><g fill="#ffffff" fill-opacity="1"><g transform="translate(214.757716, 151.339297)"><g><path d="M 3.90625 0.15625 C 3.070312 0.15625 2.382812 -0.0195312 1.84375 -0.375 C 1.300781 -0.726562 0.921875 -1.222656 0.703125 -1.859375 C 0.484375 -2.492188 0.441406 -3.226562 0.578125 -4.0625 C 0.710938 -4.894531 0.988281 -5.625 1.40625 -6.25 C 1.832031 -6.875 2.375 -7.359375 3.03125 -7.703125 C 3.6875 -8.054688 4.421875 -8.234375 5.234375 -8.234375 C 6.054688 -8.234375 6.738281 -8.054688 7.28125 -7.703125 C 7.820312 -7.347656 8.203125 -6.851562 8.421875 -6.21875 C 8.648438 -5.582031 8.695312 -4.84375 8.5625 -4 C 8.425781 -3.164062 8.144531 -2.4375 7.71875 -1.8125 C 7.289062 -1.195312 6.75 -0.710938 6.09375 -0.359375 C 5.445312 -0.015625 4.71875 0.15625 3.90625 0.15625 Z M 4.125 -1.59375 C 4.695312 -1.59375 5.171875 -1.828125 5.546875 -2.296875 C 5.921875 -2.765625 6.164062 -3.359375 6.28125 -4.078125 C 6.394531 -4.773438 6.347656 -5.351562 6.140625 -5.8125 C 5.941406 -6.28125 5.5625 -6.515625 5 -6.515625 C 4.4375 -6.515625 3.96875 -6.273438 3.59375 -5.796875 C 3.21875 -5.316406 2.96875 -4.722656 2.84375 -4.015625 C 2.738281 -3.316406 2.785156 -2.738281 2.984375 -2.28125 C 3.191406 -1.820312 3.570312 -1.59375 4.125 -1.59375 Z M 4.125 -1.59375 "/></g></g></g><g fill="#ffffff" fill-opacity="1"><g transform="translate(226.08215, 151.339297)"><g><path d="M 5.890625 -8.125 L 5.609375 -6.4375 L 4.078125 -6.4375 L 3.421875 -2.5 C 3.367188 -2.1875 3.40625 -1.972656 3.53125 -1.859375 C 3.65625 -1.753906 3.832031 -1.703125 4.0625 -1.703125 C 4.164062 -1.703125 4.269531 -1.710938 4.375 -1.734375 C 4.488281 -1.753906 4.570312 -1.769531 4.625 -1.78125 L 4.71875 -0.09375 C 4.59375 -0.0625 4.421875 -0.0234375 4.203125 0.015625 C 3.992188 0.0664062 3.742188 0.0976562 3.453125 0.109375 C 2.617188 0.140625 1.988281 -0.0351562 1.5625 -0.421875 C 1.132812 -0.816406 0.988281 -1.410156 1.125 -2.203125 L 1.828125 -6.4375 L 0.71875 -6.4375 L 1 -8.125 L 2.109375 -8.125 L 2.4375 -10.0625 L 4.6875 -10.0625 L 4.359375 -8.125 Z M 5.890625 -8.125 "/></g></g></g><g fill="#ffffff" fill-opacity="1"><g transform="translate(234.055275, 151.339297)"><g><path d="M 3.90625 0.15625 C 3.070312 0.15625 2.382812 -0.0195312 1.84375 -0.375 C 1.300781 -0.726562 0.921875 -1.222656 0.703125 -1.859375 C 0.484375 -2.492188 0.441406 -3.226562 0.578125 -4.0625 C 0.710938 -4.894531 0.988281 -5.625 1.40625 -6.25 C 1.832031 -6.875 2.375 -7.359375 3.03125 -7.703125 C 3.6875 -8.054688 4.421875 -8.234375 5.234375 -8.234375 C 6.054688 -8.234375 6.738281 -8.054688 7.28125 -7.703125 C 7.820312 -7.347656 8.203125 -6.851562 8.421875 -6.21875 C 8.648438 -5.582031 8.695312 -4.84375 8.5625 -4 C 8.425781 -3.164062 8.144531 -2.4375 7.71875 -1.8125 C 7.289062 -1.195312 6.75 -0.710938 6.09375 -0.359375 C 5.445312 -0.015625 4.71875 0.15625 3.90625 0.15625 Z M 4.125 -1.59375 C 4.695312 -1.59375 5.171875 -1.828125 5.546875 -2.296875 C 5.921875 -2.765625 6.164062 -3.359375 6.28125 -4.078125 C 6.394531 -4.773438 6.347656 -5.351562 6.140625 -5.8125 C 5.941406 -6.28125 5.5625 -6.515625 5 -6.515625 C 4.4375 -6.515625 3.96875 -6.273438 3.59375 -5.796875 C 3.21875 -5.316406 2.96875 -4.722656 2.84375 -4.015625 C 2.738281 -3.316406 2.785156 -2.738281 2.984375 -2.28125 C 3.191406 -1.820312 3.570312 -1.59375 4.125 -1.59375 Z M 4.125 -1.59375 "/></g></g></g><g fill="#ffffff" fill-opacity="1"><g transform="translate(245.379708, 151.339297)"><g><path d="M 0.21875 0 L 1.578125 -8.125 L 3.765625 -8.125 L 3.515625 -6.703125 L 3.609375 -6.703125 C 3.835938 -7.210938 4.144531 -7.59375 4.53125 -7.84375 C 4.925781 -8.101562 5.351562 -8.234375 5.8125 -8.234375 C 6.25 -8.234375 6.597656 -8.132812 6.859375 -7.9375 L 5.890625 -6.09375 C 5.796875 -6.144531 5.6875 -6.1875 5.5625 -6.21875 C 5.4375 -6.25 5.296875 -6.265625 5.140625 -6.265625 C 4.691406 -6.265625 4.285156 -6.109375 3.921875 -5.796875 C 3.554688 -5.492188 3.328125 -5.09375 3.234375 -4.59375 L 2.46875 0 Z M 0.21875 0 "/></g></g></g><g fill="#ffffff" fill-opacity="1"><g transform="translate(253.950139, 151.339297)"><g><path d="M 7.9375 -5.8125 L 5.890625 -5.671875 C 5.878906 -5.941406 5.78125 -6.164062 5.59375 -6.34375 C 5.40625 -6.53125 5.125 -6.625 4.75 -6.625 C 4.375 -6.625 4.039062 -6.539062 3.75 -6.375 C 3.46875 -6.207031 3.304688 -5.992188 3.265625 -5.734375 C 3.234375 -5.554688 3.273438 -5.410156 3.390625 -5.296875 C 3.515625 -5.179688 3.757812 -5.082031 4.125 -5 L 5.5625 -4.703125 C 7.09375 -4.378906 7.765625 -3.617188 7.578125 -2.421875 C 7.484375 -1.898438 7.253906 -1.445312 6.890625 -1.0625 C 6.523438 -0.675781 6.054688 -0.375 5.484375 -0.15625 C 4.921875 0.0507812 4.296875 0.15625 3.609375 0.15625 C 2.515625 0.15625 1.675781 -0.0664062 1.09375 -0.515625 C 0.519531 -0.972656 0.242188 -1.585938 0.265625 -2.359375 L 2.46875 -2.46875 C 2.507812 -1.800781 2.921875 -1.46875 3.703125 -1.46875 C 4.117188 -1.457031 4.472656 -1.539062 4.765625 -1.71875 C 5.066406 -1.90625 5.234375 -2.128906 5.265625 -2.390625 C 5.296875 -2.578125 5.242188 -2.722656 5.109375 -2.828125 C 4.972656 -2.941406 4.734375 -3.035156 4.390625 -3.109375 L 3.046875 -3.390625 C 1.492188 -3.703125 0.828125 -4.507812 1.046875 -5.8125 C 1.171875 -6.5625 1.570312 -7.148438 2.25 -7.578125 C 2.9375 -8.015625 3.785156 -8.234375 4.796875 -8.234375 C 5.847656 -8.234375 6.640625 -8.015625 7.171875 -7.578125 C 7.710938 -7.140625 7.96875 -6.550781 7.9375 -5.8125 Z M 7.9375 -5.8125 "/></g></g></g><g fill="#ffffff" fill-opacity="1"><g transform="translate(264.502816, 151.339297)"><g/></g></g><g fill="#ffffff" fill-opacity="1"><g transform="translate(270.144809, 151.339297)"><g><path d="M 0.265625 0 L 2.0625 -10.828125 L 6.328125 -10.828125 C 7.148438 -10.828125 7.820312 -10.671875 8.34375 -10.359375 C 8.875 -10.046875 9.242188 -9.613281 9.453125 -9.0625 C 9.671875 -8.507812 9.722656 -7.875 9.609375 -7.15625 C 9.492188 -6.4375 9.234375 -5.800781 8.828125 -5.25 C 8.429688 -4.707031 7.910156 -4.28125 7.265625 -3.96875 C 6.628906 -3.664062 5.894531 -3.515625 5.0625 -3.515625 L 3.140625 -3.515625 L 2.546875 0 Z M 3.453125 -5.34375 L 4.984375 -5.34375 C 5.648438 -5.34375 6.171875 -5.507812 6.546875 -5.84375 C 6.929688 -6.1875 7.164062 -6.625 7.25 -7.15625 C 7.332031 -7.695312 7.242188 -8.128906 6.984375 -8.453125 C 6.722656 -8.785156 6.257812 -8.953125 5.59375 -8.953125 L 4.046875 -8.953125 Z M 3.453125 -5.34375 "/></g></g></g><g fill="#ffffff" fill-opacity="1"><g transform="translate(281.966127, 151.339297)"><g><path d="M 9.140625 -8.125 L 4.953125 0 L 2.421875 0 L 0.9375 -8.125 L 3.296875 -8.125 L 4.015625 -2.3125 L 4.09375 -2.3125 L 6.75 -8.125 Z M 9.140625 -8.125 "/></g></g></g><g fill="#ffffff" fill-opacity="1"><g transform="translate(292.878258, 151.339297)"><g><path d="M 5.890625 -8.125 L 5.609375 -6.4375 L 4.078125 -6.4375 L 3.421875 -2.5 C 3.367188 -2.1875 3.40625 -1.972656 3.53125 -1.859375 C 3.65625 -1.753906 3.832031 -1.703125 4.0625 -1.703125 C 4.164062 -1.703125 4.269531 -1.710938 4.375 -1.734375 C 4.488281 -1.753906 4.570312 -1.769531 4.625 -1.78125 L 4.71875 -0.09375 C 4.59375 -0.0625 4.421875 -0.0234375 4.203125 0.015625 C 3.992188 0.0664062 3.742188 0.0976562 3.453125 0.109375 C 2.617188 0.140625 1.988281 -0.0351562 1.5625 -0.421875 C 1.132812 -0.816406 0.988281 -1.410156 1.125 -2.203125 L 1.828125 -6.4375 L 0.71875 -6.4375 L 1 -8.125 L 2.109375 -8.125 L 2.4375 -10.0625 L 4.6875 -10.0625 L 4.359375 -8.125 Z M 5.890625 -8.125 "/></g></g></g><g fill="#ffffff" fill-opacity="1"><g transform="translate(300.851381, 151.339297)"><g><path d="M 1.4375 -4.34375 C 1.863281 -6.9375 2.945312 -9.164062 4.6875 -11.03125 L 6.84375 -11.03125 C 6.394531 -10.5625 5.960938 -9.960938 5.546875 -9.234375 C 5.140625 -8.515625 4.78125 -7.726562 4.46875 -6.875 C 4.15625 -6.019531 3.925781 -5.175781 3.78125 -4.34375 C 3.644531 -3.507812 3.59375 -2.664062 3.625 -1.8125 C 3.65625 -0.957031 3.753906 -0.164062 3.921875 0.5625 C 4.097656 1.289062 4.332031 1.890625 4.625 2.359375 L 2.46875 2.359375 C 1.351562 0.492188 1.007812 -1.738281 1.4375 -4.34375 Z M 1.4375 -4.34375 "/></g></g></g><g fill="#ffffff" fill-opacity="1"><g transform="translate(309.131085, 151.339297)"><g><path d="M 0.265625 0 L 2.0625 -10.828125 L 4.359375 -10.828125 L 2.875 -1.890625 L 7.515625 -1.890625 L 7.203125 0 Z M 0.265625 0 "/></g></g></g><g fill="#ffffff" fill-opacity="1"><g transform="translate(319.768342, 151.339297)"><g><path d="M 5.890625 -8.125 L 5.609375 -6.4375 L 4.078125 -6.4375 L 3.421875 -2.5 C 3.367188 -2.1875 3.40625 -1.972656 3.53125 -1.859375 C 3.65625 -1.753906 3.832031 -1.703125 4.0625 -1.703125 C 4.164062 -1.703125 4.269531 -1.710938 4.375 -1.734375 C 4.488281 -1.753906 4.570312 -1.769531 4.625 -1.78125 L 4.71875 -0.09375 C 4.59375 -0.0625 4.421875 -0.0234375 4.203125 0.015625 C 3.992188 0.0664062 3.742188 0.0976562 3.453125 0.109375 C 2.617188 0.140625 1.988281 -0.0351562 1.5625 -0.421875 C 1.132812 -0.816406 0.988281 -1.410156 1.125 -2.203125 L 1.828125 -6.4375 L 0.71875 -6.4375 L 1 -8.125 L 2.109375 -8.125 L 2.4375 -10.0625 L 4.6875 -10.0625 L 4.359375 -8.125 Z M 5.890625 -8.125 "/></g></g></g><g fill="#ffffff" fill-opacity="1"><g transform="translate(327.741466, 151.339297)"><g><path d="M 3.203125 0.125 C 2.585938 0.125 2.054688 -0.03125 1.609375 -0.34375 C 1.160156 -0.664062 0.84375 -1.132812 0.65625 -1.75 C 0.46875 -2.375 0.453125 -3.140625 0.609375 -4.046875 C 0.753906 -4.984375 1.03125 -5.757812 1.4375 -6.375 C 1.84375 -6.988281 2.316406 -7.453125 2.859375 -7.765625 C 3.410156 -8.078125 3.984375 -8.234375 4.578125 -8.234375 C 5.035156 -8.234375 5.40625 -8.15625 5.6875 -8 C 5.96875 -7.84375 6.179688 -7.648438 6.328125 -7.421875 C 6.484375 -7.203125 6.585938 -6.984375 6.640625 -6.765625 L 6.71875 -6.765625 L 7.390625 -10.828125 L 9.640625 -10.828125 L 7.84375 0 L 5.625 0 L 5.84375 -1.296875 L 5.75 -1.296875 C 5.601562 -1.078125 5.414062 -0.851562 5.1875 -0.625 C 4.957031 -0.40625 4.675781 -0.222656 4.34375 -0.078125 C 4.019531 0.0546875 3.640625 0.125 3.203125 0.125 Z M 4.203125 -1.65625 C 4.742188 -1.65625 5.203125 -1.875 5.578125 -2.3125 C 5.953125 -2.757812 6.195312 -3.34375 6.3125 -4.0625 C 6.4375 -4.789062 6.382812 -5.367188 6.15625 -5.796875 C 5.925781 -6.222656 5.535156 -6.4375 4.984375 -6.4375 C 4.429688 -6.4375 3.972656 -6.21875 3.609375 -5.78125 C 3.253906 -5.34375 3.019531 -4.769531 2.90625 -4.0625 C 2.789062 -3.351562 2.835938 -2.773438 3.046875 -2.328125 C 3.265625 -1.878906 3.648438 -1.65625 4.203125 -1.65625 Z M 4.203125 -1.65625 "/></g></g></g><g fill="#ffffff" fill-opacity="1"><g transform="translate(339.39364, 151.339297)"><g><path d="M 4.75 -4.34375 C 4.320312 -1.75 3.238281 0.476562 1.5 2.34375 L -0.65625 2.34375 C -0.207031 1.875 0.21875 1.273438 0.625 0.546875 C 1.039062 -0.171875 1.40625 -0.957031 1.71875 -1.8125 C 2.03125 -2.664062 2.257812 -3.507812 2.40625 -4.34375 C 2.539062 -5.175781 2.59375 -6.019531 2.5625 -6.875 C 2.53125 -7.726562 2.425781 -8.519531 2.25 -9.25 C 2.082031 -9.976562 1.851562 -10.578125 1.5625 -11.046875 L 3.71875 -11.046875 C 4.832031 -9.179688 5.175781 -6.945312 4.75 -4.34375 Z M 4.75 -4.34375 "/></g></g></g><path stroke-linecap="butt" transform="matrix(0.748005, 0.000000000000000215, -0.000000000000000215, 0.748005, 32.969365, 144.331853)" fill="none" stroke-linejoin="miter" d="M -0.000822022 4.000461 L 198.156414 4.000461 " stroke="#ffffff" stroke-width="8" stroke-opacity="1" stroke-miterlimit="4"/></svg>