<svg xmlns="http://www.w3.org/2000/svg" xmlns:xlink="http://www.w3.org/1999/xlink" width="500" zoomAndPan="magnify" viewBox="0 0 375 187.499995" height="250" preserveAspectRatio="xMidYMid meet" version="1.0"><defs><g/><clipPath id="1fb30adf62"><path d="M 34 30.246094 L 344.304688 30.246094 L 344.304688 75 L 34 75 Z M 34 30.246094 " clip-rule="nonzero"/></clipPath></defs><g clip-path="url(#1fb30adf62)"><path fill="#ffffff" d="M 59.589844 61.882812 C 63.453125 61.15625 67.273438 60.203125 71.03125 59.03125 C 74.789062 57.851562 78.503906 56.5 82.175781 55.007812 C 85.847656 53.511719 89.496094 51.914062 93.148438 50.253906 L 104.203125 45.195312 C 107.9375 43.5 111.734375 41.832031 115.644531 40.253906 C 116.628906 39.863281 117.601562 39.464844 118.605469 39.089844 L 120.097656 38.523438 L 121.605469 37.972656 C 122.609375 37.601562 123.640625 37.261719 124.65625 36.902344 C 125.167969 36.730469 125.691406 36.566406 126.207031 36.394531 C 126.726562 36.230469 127.238281 36.054688 127.765625 35.898438 C 128.8125 35.582031 129.855469 35.257812 130.925781 34.96875 C 131.457031 34.820312 131.984375 34.667969 132.523438 34.527344 L 134.136719 34.125 C 135.214844 33.855469 136.285156 33.574219 137.378906 33.351562 L 139.011719 33.003906 C 139.558594 32.886719 140.101562 32.761719 140.652344 32.671875 L 143.953125 32.078125 L 147.277344 31.585938 C 147.554688 31.542969 147.828125 31.5 148.109375 31.464844 L 148.941406 31.367188 L 150.613281 31.171875 C 151.171875 31.109375 151.726562 31.03125 152.285156 30.984375 L 153.960938 30.835938 C 158.429688 30.445312 162.917969 30.265625 167.386719 30.308594 C 171.855469 30.355469 176.300781 30.574219 180.707031 30.972656 C 189.519531 31.765625 198.140625 33.257812 206.523438 35.183594 C 214.894531 37.140625 223.035156 39.542969 230.917969 42.308594 C 234.855469 43.691406 238.746094 45.140625 242.558594 46.695312 C 246.375 48.238281 250.132812 49.855469 253.824219 51.550781 C 245.917969 48.90625 237.953125 46.40625 229.84375 44.265625 C 221.75 42.09375 213.523438 40.257812 205.214844 38.832031 C 201.0625 38.117188 196.878906 37.542969 192.6875 37.070312 C 190.597656 36.824219 188.496094 36.644531 186.398438 36.460938 L 183.246094 36.246094 C 182.195312 36.175781 181.144531 36.144531 180.09375 36.089844 C 175.890625 35.917969 171.695312 35.875 167.523438 36.019531 L 164.398438 36.164062 C 163.363281 36.226562 162.328125 36.3125 161.292969 36.382812 L 160.515625 36.441406 L 159.742188 36.515625 L 158.199219 36.664062 C 157.6875 36.71875 157.167969 36.757812 156.65625 36.820312 L 155.125 37.011719 L 153.589844 37.203125 C 153.082031 37.261719 152.578125 37.355469 152.070312 37.433594 L 150.550781 37.667969 L 149.792969 37.785156 C 149.539062 37.824219 149.292969 37.875 149.042969 37.921875 L 146.039062 38.484375 L 143.078125 39.132812 C 142.578125 39.234375 142.097656 39.367188 141.609375 39.488281 L 140.148438 39.855469 C 139.164062 40.082031 138.214844 40.371094 137.253906 40.644531 L 135.816406 41.054688 C 135.339844 41.195312 134.871094 41.351562 134.394531 41.5 C 133.449219 41.789062 132.515625 42.117188 131.574219 42.433594 C 124.082031 45.023438 116.921875 48.335938 109.738281 51.816406 C 102.550781 55.296875 95.320312 58.964844 87.558594 62.273438 C 86.074219 62.90625 84.570312 63.519531 83.046875 64.121094 C 87.640625 64.472656 92.253906 64.738281 96.875 64.933594 L 101.261719 65.097656 L 105.65625 65.199219 C 107.121094 65.246094 108.589844 65.246094 110.058594 65.265625 L 112.261719 65.289062 C 112.992188 65.296875 113.730469 65.289062 114.460938 65.289062 C 120.335938 65.316406 126.222656 65.191406 132.117188 65.015625 C 138.007812 64.84375 143.902344 64.570312 149.804688 64.246094 C 155.707031 63.917969 161.613281 63.539062 167.523438 63.101562 C 179.34375 62.257812 191.175781 61.234375 203.046875 60.234375 C 214.917969 59.234375 226.820312 58.234375 238.773438 57.425781 L 243.257812 57.128906 C 244.75 57.027344 246.246094 56.933594 247.746094 56.847656 C 250.742188 56.671875 253.75 56.515625 256.757812 56.378906 C 258.261719 56.308594 259.769531 56.257812 261.277344 56.195312 L 265.804688 56.054688 C 267.316406 56.027344 268.824219 55.992188 270.339844 55.976562 L 272.609375 55.960938 C 273.367188 55.953125 274.125 55.953125 274.882812 55.957031 C 276.398438 55.96875 277.910156 55.964844 279.429688 56.003906 L 281.699219 56.046875 C 282.457031 56.0625 283.21875 56.09375 283.972656 56.121094 L 286.246094 56.207031 L 288.519531 56.328125 C 290.03125 56.394531 291.542969 56.511719 293.054688 56.617188 C 299.097656 57.054688 305.109375 57.789062 311.019531 58.824219 C 316.929688 59.878906 322.71875 61.269531 328.28125 63.042969 C 333.835938 64.8125 339.175781 66.945312 344.105469 69.496094 C 333.453125 65.394531 321.964844 62.828125 310.320312 61.554688 C 298.65625 60.257812 286.832031 60.234375 275.070312 60.769531 C 274.335938 60.796875 273.597656 60.835938 272.863281 60.878906 L 270.65625 61.003906 C 269.1875 61.089844 267.714844 61.203125 266.246094 61.296875 L 261.832031 61.625 C 260.359375 61.75 258.890625 61.863281 257.417969 61.996094 C 254.476562 62.257812 251.535156 62.535156 248.589844 62.835938 C 245.644531 63.121094 242.695312 63.429688 239.75 63.738281 C 227.960938 64.992188 216.171875 66.347656 204.34375 67.664062 C 180.695312 70.292969 156.84375 72.757812 132.652344 73.695312 C 120.5625 74.167969 108.398438 74.234375 96.226562 73.730469 C 90.144531 73.464844 84.058594 73.089844 77.992188 72.515625 C 71.925781 71.941406 65.882812 71.207031 59.878906 70.304688 L 34.808594 66.542969 Z M 59.589844 61.882812 " fill-opacity="1" fill-rule="nonzero"/></g><path fill="#e80f17" d="M 126.117188 87.539062 C 116.773438 89.578125 107.300781 91.085938 97.773438 91.960938 C 85.828125 93.054688 73.660156 93.210938 61.789062 91.292969 C 56.015625 90.359375 50.296875 88.917969 44.882812 86.675781 C 40.449219 84.839844 32.046875 81.855469 31.246094 76.335938 C 30.964844 74.378906 30.886719 71.421875 33.347656 69.894531 C 36.515625 67.929688 40.765625 69.914062 43.734375 71.039062 C 47.277344 72.386719 50.765625 73.820312 54.59375 74.867188 C 59.371094 76.171875 64.3125 77.261719 69.304688 78.226562 C 74.933594 79.316406 80.660156 80.296875 86.449219 81.027344 C 83.59375 81.5 78.847656 82.144531 76.28125 82.460938 C 73.214844 82.84375 70.128906 83.179688 67.027344 83.449219 C 63.765625 83.730469 60.394531 83.941406 57.019531 84.054688 C 72.03125 87.066406 97.601562 89.707031 134.777344 85.4375 C 131.859375 86.1875 128.9375 86.921875 126.117188 87.539062 Z M 126.117188 87.539062 " fill-opacity="1" fill-rule="nonzero"/><g fill="#ffffff" fill-opacity="1"><g transform="translate(31.665747, 128.84819)"><g><path d="M 18.765625 -19.46875 C 18.804688 -20.582031 18.476562 -21.441406 17.78125 -22.046875 C 17.09375 -22.648438 16.054688 -22.953125 14.671875 -22.953125 C 13.242188 -22.953125 12.109375 -22.664062 11.265625 -22.09375 C 10.421875 -21.519531 9.921875 -20.785156 9.765625 -19.890625 C 9.566406 -18.921875 9.863281 -18.175781 10.65625 -17.65625 C 11.445312 -17.144531 12.410156 -16.753906 13.546875 -16.484375 L 15.90625 -15.90625 C 17.425781 -15.539062 18.75 -15.019531 19.875 -14.34375 C 21 -13.664062 21.828125 -12.789062 22.359375 -11.71875 C 22.898438 -10.65625 23.039062 -9.359375 22.78125 -7.828125 C 22.363281 -5.328125 21.097656 -3.332031 18.984375 -1.84375 C 16.867188 -0.351562 14.132812 0.390625 10.78125 0.390625 C 7.46875 0.390625 4.941406 -0.367188 3.203125 -1.890625 C 1.460938 -3.410156 0.800781 -5.648438 1.21875 -8.609375 L 6.828125 -8.609375 C 6.679688 -7.234375 7.046875 -6.195312 7.921875 -5.5 C 8.804688 -4.8125 10.003906 -4.46875 11.515625 -4.46875 C 13.003906 -4.46875 14.238281 -4.78125 15.21875 -5.40625 C 16.195312 -6.03125 16.769531 -6.84375 16.9375 -7.84375 C 17.09375 -8.769531 16.804688 -9.484375 16.078125 -9.984375 C 15.347656 -10.492188 14.265625 -10.925781 12.828125 -11.28125 L 9.96875 -12.03125 C 7.757812 -12.59375 6.082031 -13.472656 4.9375 -14.671875 C 3.800781 -15.867188 3.394531 -17.476562 3.71875 -19.5 C 4.007812 -21.164062 4.703125 -22.617188 5.796875 -23.859375 C 6.898438 -25.109375 8.296875 -26.078125 9.984375 -26.765625 C 11.671875 -27.460938 13.515625 -27.8125 15.515625 -27.8125 C 17.546875 -27.8125 19.257812 -27.457031 20.65625 -26.75 C 22.0625 -26.050781 23.085938 -25.078125 23.734375 -23.828125 C 24.378906 -22.578125 24.578125 -21.125 24.328125 -19.46875 Z M 18.765625 -19.46875 "/></g></g></g><g fill="#ffffff" fill-opacity="1"><g transform="translate(56.357201, 128.84819)"><g><path d="M 5.390625 0 L -0.8125 0 L 13.203125 -27.4375 L 20.6875 -27.4375 L 25.578125 0 L 19.375 0 L 18.375 -6.25 L 8.484375 -6.25 Z M 10.703125 -10.78125 L 17.671875 -10.78125 L 16.03125 -21.15625 L 15.8125 -21.15625 Z M 10.703125 -10.78125 "/></g></g></g><g fill="#ffffff" fill-opacity="1"><g transform="translate(84.556879, 128.84819)"><g><path d="M 5.21875 -27.4375 L 12.375 -27.4375 L 16.890625 -9 L 17.21875 -9 L 27.8125 -27.4375 L 34.953125 -27.4375 L 30.40625 0 L 24.78125 0 L 27.75 -17.859375 L 27.515625 -17.859375 L 17.5 -0.140625 L 13.65625 -0.140625 L 9.515625 -17.921875 L 9.296875 -17.921875 L 6.296875 0 L 0.671875 0 Z M 5.21875 -27.4375 "/></g></g></g><g fill="#ffffff" fill-opacity="1"><g transform="translate(119.049937, 128.84819)"><g><path d="M 5.390625 0 L -0.8125 0 L 13.203125 -27.4375 L 20.6875 -27.4375 L 25.578125 0 L 19.375 0 L 18.375 -6.25 L 8.484375 -6.25 Z M 10.703125 -10.78125 L 17.671875 -10.78125 L 16.03125 -21.15625 L 15.8125 -21.15625 Z M 10.703125 -10.78125 "/></g></g></g><g fill="#ffffff" fill-opacity="1"><g transform="translate(147.249616, 128.84819)"><g><path d="M 0.671875 0 L 5.21875 -27.4375 L 16.046875 -27.4375 C 19.160156 -27.4375 21.441406 -26.625 22.890625 -25 C 24.335938 -23.375 24.835938 -21.195312 24.390625 -18.46875 C 24.085938 -16.59375 23.40625 -14.988281 22.34375 -13.65625 C 21.28125 -12.332031 19.914062 -11.332031 18.25 -10.65625 L 22.296875 0 L 15.90625 0 L 12.3125 -9.71875 L 8.09375 -9.71875 L 6.46875 0 Z M 8.859375 -14.390625 L 12.8125 -14.390625 C 16.101562 -14.390625 17.972656 -15.75 18.421875 -18.46875 C 18.867188 -21.28125 17.453125 -22.6875 14.171875 -22.6875 L 10.265625 -22.6875 Z M 8.859375 -14.390625 "/></g></g></g><g fill="#ffffff" fill-opacity="1"><g transform="translate(172.222263, 128.84819)"><g><path d="M 5.390625 0 L -0.8125 0 L 13.203125 -27.4375 L 20.6875 -27.4375 L 25.578125 0 L 19.375 0 L 18.375 -6.25 L 8.484375 -6.25 Z M 10.703125 -10.78125 L 17.671875 -10.78125 L 16.03125 -21.15625 L 15.8125 -21.15625 Z M 10.703125 -10.78125 "/></g></g></g><g fill="#ffffff" fill-opacity="1"><g transform="translate(200.421942, 128.84819)"><g><path d="M 18.765625 -19.46875 C 18.804688 -20.582031 18.476562 -21.441406 17.78125 -22.046875 C 17.09375 -22.648438 16.054688 -22.953125 14.671875 -22.953125 C 13.242188 -22.953125 12.109375 -22.664062 11.265625 -22.09375 C 10.421875 -21.519531 9.921875 -20.785156 9.765625 -19.890625 C 9.566406 -18.921875 9.863281 -18.175781 10.65625 -17.65625 C 11.445312 -17.144531 12.410156 -16.753906 13.546875 -16.484375 L 15.90625 -15.90625 C 17.425781 -15.539062 18.75 -15.019531 19.875 -14.34375 C 21 -13.664062 21.828125 -12.789062 22.359375 -11.71875 C 22.898438 -10.65625 23.039062 -9.359375 22.78125 -7.828125 C 22.363281 -5.328125 21.097656 -3.332031 18.984375 -1.84375 C 16.867188 -0.351562 14.132812 0.390625 10.78125 0.390625 C 7.46875 0.390625 4.941406 -0.367188 3.203125 -1.890625 C 1.460938 -3.410156 0.800781 -5.648438 1.21875 -8.609375 L 6.828125 -8.609375 C 6.679688 -7.234375 7.046875 -6.195312 7.921875 -5.5 C 8.804688 -4.8125 10.003906 -4.46875 11.515625 -4.46875 C 13.003906 -4.46875 14.238281 -4.78125 15.21875 -5.40625 C 16.195312 -6.03125 16.769531 -6.84375 16.9375 -7.84375 C 17.09375 -8.769531 16.804688 -9.484375 16.078125 -9.984375 C 15.347656 -10.492188 14.265625 -10.925781 12.828125 -11.28125 L 9.96875 -12.03125 C 7.757812 -12.59375 6.082031 -13.472656 4.9375 -14.671875 C 3.800781 -15.867188 3.394531 -17.476562 3.71875 -19.5 C 4.007812 -21.164062 4.703125 -22.617188 5.796875 -23.859375 C 6.898438 -25.109375 8.296875 -26.078125 9.984375 -26.765625 C 11.671875 -27.460938 13.515625 -27.8125 15.515625 -27.8125 C 17.546875 -27.8125 19.257812 -27.457031 20.65625 -26.75 C 22.0625 -26.050781 23.085938 -25.078125 23.734375 -23.828125 C 24.378906 -22.578125 24.578125 -21.125 24.328125 -19.46875 Z M 18.765625 -19.46875 "/></g></g></g><g fill="#ffffff" fill-opacity="1"><g transform="translate(225.113396, 128.84819)"><g><path d="M 11.03125 -27.4375 L 6.46875 0 L 0.671875 0 L 5.21875 -27.4375 Z M 11.03125 -27.4375 "/></g></g></g><g fill="#ffffff" fill-opacity="1"><g transform="translate(235.691626, 128.84819)"><g><path d="M 28.171875 -27.4375 L 23.609375 0 L 18.609375 0 L 9.5625 -17.265625 L 9.34375 -17.265625 L 6.46875 0 L 0.671875 0 L 5.21875 -27.4375 L 10.3125 -27.4375 L 19.3125 -10.1875 L 19.546875 -10.1875 L 22.390625 -27.4375 Z M 28.171875 -27.4375 "/></g></g></g><g fill="#ffffff" fill-opacity="1"><g transform="translate(263.409264, 128.84819)"><g><path d="M 21.9375 -18.5625 C 21.789062 -19.851562 21.332031 -20.859375 20.5625 -21.578125 C 19.789062 -22.304688 18.660156 -22.671875 17.171875 -22.671875 C 15.765625 -22.671875 14.453125 -22.320312 13.234375 -21.625 C 12.015625 -20.9375 10.976562 -19.925781 10.125 -18.59375 C 9.269531 -17.257812 8.6875 -15.644531 8.375 -13.75 C 7.894531 -10.875 8.132812 -8.65625 9.09375 -7.09375 C 10.050781 -5.53125 11.613281 -4.75 13.78125 -4.75 C 15.71875 -4.75 17.347656 -5.25 18.671875 -6.25 C 20.003906 -7.257812 20.828125 -8.613281 21.140625 -10.3125 L 15.25 -10.3125 L 15.984375 -14.6875 L 27.453125 -14.6875 L 26.875 -11.21875 C 26.488281 -8.8125 25.640625 -6.738281 24.328125 -5 C 23.023438 -3.269531 21.40625 -1.941406 19.46875 -1.015625 C 17.53125 -0.0859375 15.40625 0.375 13.09375 0.375 C 10.519531 0.375 8.351562 -0.191406 6.59375 -1.328125 C 4.84375 -2.472656 3.597656 -4.09375 2.859375 -6.1875 C 2.117188 -8.289062 1.988281 -10.789062 2.46875 -13.6875 C 2.957031 -16.65625 3.941406 -19.191406 5.421875 -21.296875 C 6.898438 -23.398438 8.703125 -25.007812 10.828125 -26.125 C 12.960938 -27.25 15.234375 -27.8125 17.640625 -27.8125 C 19.710938 -27.8125 21.519531 -27.414062 23.0625 -26.625 C 24.601562 -25.84375 25.796875 -24.753906 26.640625 -23.359375 C 27.484375 -21.972656 27.878906 -20.375 27.828125 -18.5625 Z M 21.9375 -18.5625 "/></g></g></g><g fill="#ffffff" fill-opacity="1"><g transform="translate(292.090984, 128.84819)"><g><path d="M 0.671875 0 L 5.21875 -27.4375 L 11.03125 -27.4375 L 9.140625 -16.109375 L 20.921875 -16.109375 L 22.796875 -27.4375 L 28.578125 -27.4375 L 24.03125 0 L 18.25 0 L 20.125 -11.328125 L 8.34375 -11.328125 L 6.46875 0 Z M 0.671875 0 "/></g></g></g><g fill="#ffffff" fill-opacity="1"><g transform="translate(320.223714, 128.84819)"><g><path d="M 0.671875 0 L 5.21875 -27.4375 L 23.703125 -27.4375 L 22.90625 -22.65625 L 10.21875 -22.65625 L 9.140625 -16.109375 L 20.875 -16.109375 L 20.078125 -11.328125 L 8.34375 -11.328125 L 7.265625 -4.78125 L 20.015625 -4.78125 L 19.203125 0 Z M 0.671875 0 "/></g></g></g><g fill="#e80f17" fill-opacity="1"><g transform="translate(196.358903, 152.699883)"><g><path d="M 2.078125 -10.921875 L 4.921875 -10.921875 L 6.71875 -3.578125 L 6.859375 -3.578125 L 11.0625 -10.921875 L 13.921875 -10.921875 L 12.109375 0 L 9.859375 0 L 11.046875 -7.109375 L 10.953125 -7.109375 L 6.96875 -0.046875 L 5.4375 -0.046875 L 3.796875 -7.140625 L 3.703125 -7.140625 L 2.5 0 L 0.265625 0 Z M 2.078125 -10.921875 "/></g></g></g><g fill="#e80f17" fill-opacity="1"><g transform="translate(212.295641, 152.699883)"><g><path d="M 3.9375 0.15625 C 3.101562 0.15625 2.410156 -0.0195312 1.859375 -0.375 C 1.316406 -0.726562 0.929688 -1.222656 0.703125 -1.859375 C 0.484375 -2.503906 0.445312 -3.25 0.59375 -4.09375 C 0.726562 -4.9375 1.003906 -5.671875 1.421875 -6.296875 C 1.847656 -6.929688 2.390625 -7.421875 3.046875 -7.765625 C 3.710938 -8.117188 4.457031 -8.296875 5.28125 -8.296875 C 6.113281 -8.296875 6.800781 -8.113281 7.34375 -7.75 C 7.894531 -7.394531 8.28125 -6.898438 8.5 -6.265625 C 8.71875 -5.628906 8.757812 -4.882812 8.625 -4.03125 C 8.488281 -3.195312 8.207031 -2.460938 7.78125 -1.828125 C 7.351562 -1.203125 6.8125 -0.710938 6.15625 -0.359375 C 5.5 -0.015625 4.757812 0.15625 3.9375 0.15625 Z M 4.171875 -1.59375 C 4.734375 -1.59375 5.203125 -1.832031 5.578125 -2.3125 C 5.960938 -2.789062 6.21875 -3.390625 6.34375 -4.109375 C 6.457031 -4.816406 6.410156 -5.398438 6.203125 -5.859375 C 5.992188 -6.328125 5.609375 -6.5625 5.046875 -6.5625 C 4.472656 -6.5625 3.992188 -6.320312 3.609375 -5.84375 C 3.234375 -5.363281 2.988281 -4.765625 2.875 -4.046875 C 2.757812 -3.335938 2.804688 -2.75 3.015625 -2.28125 C 3.222656 -1.820312 3.609375 -1.59375 4.171875 -1.59375 Z M 4.171875 -1.59375 "/></g></g></g><g fill="#e80f17" fill-opacity="1"><g transform="translate(223.712871, 152.699883)"><g><path d="M 5.953125 -8.1875 L 5.65625 -6.484375 L 4.109375 -6.484375 L 3.453125 -2.515625 C 3.398438 -2.203125 3.4375 -1.988281 3.5625 -1.875 C 3.6875 -1.769531 3.863281 -1.71875 4.09375 -1.71875 C 4.195312 -1.71875 4.300781 -1.726562 4.40625 -1.75 C 4.519531 -1.769531 4.609375 -1.785156 4.671875 -1.796875 L 4.75 -0.09375 C 4.625 -0.0625 4.453125 -0.0234375 4.234375 0.015625 C 4.023438 0.0664062 3.773438 0.0976562 3.484375 0.109375 C 2.648438 0.140625 2.015625 -0.0351562 1.578125 -0.421875 C 1.140625 -0.816406 0.992188 -1.414062 1.140625 -2.21875 L 1.84375 -6.484375 L 0.71875 -6.484375 L 1.015625 -8.1875 L 2.125 -8.1875 L 2.453125 -10.15625 L 4.71875 -10.15625 L 4.40625 -8.1875 Z M 5.953125 -8.1875 "/></g></g></g><g fill="#e80f17" fill-opacity="1"><g transform="translate(231.751127, 152.699883)"><g><path d="M 3.9375 0.15625 C 3.101562 0.15625 2.410156 -0.0195312 1.859375 -0.375 C 1.316406 -0.726562 0.929688 -1.222656 0.703125 -1.859375 C 0.484375 -2.503906 0.445312 -3.25 0.59375 -4.09375 C 0.726562 -4.9375 1.003906 -5.671875 1.421875 -6.296875 C 1.847656 -6.929688 2.390625 -7.421875 3.046875 -7.765625 C 3.710938 -8.117188 4.457031 -8.296875 5.28125 -8.296875 C 6.113281 -8.296875 6.800781 -8.113281 7.34375 -7.75 C 7.894531 -7.394531 8.28125 -6.898438 8.5 -6.265625 C 8.71875 -5.628906 8.757812 -4.882812 8.625 -4.03125 C 8.488281 -3.195312 8.207031 -2.460938 7.78125 -1.828125 C 7.351562 -1.203125 6.8125 -0.710938 6.15625 -0.359375 C 5.5 -0.015625 4.757812 0.15625 3.9375 0.15625 Z M 4.171875 -1.59375 C 4.734375 -1.59375 5.203125 -1.832031 5.578125 -2.3125 C 5.960938 -2.789062 6.21875 -3.390625 6.34375 -4.109375 C 6.457031 -4.816406 6.410156 -5.398438 6.203125 -5.859375 C 5.992188 -6.328125 5.609375 -6.5625 5.046875 -6.5625 C 4.472656 -6.5625 3.992188 -6.320312 3.609375 -5.84375 C 3.234375 -5.363281 2.988281 -4.765625 2.875 -4.046875 C 2.757812 -3.335938 2.804688 -2.75 3.015625 -2.28125 C 3.222656 -1.820312 3.609375 -1.59375 4.171875 -1.59375 Z M 4.171875 -1.59375 "/></g></g></g><g fill="#e80f17" fill-opacity="1"><g transform="translate(243.168355, 152.699883)"><g><path d="M 0.21875 0 L 1.59375 -8.1875 L 3.796875 -8.1875 L 3.546875 -6.765625 L 3.640625 -6.765625 C 3.867188 -7.273438 4.179688 -7.660156 4.578125 -7.921875 C 4.972656 -8.179688 5.398438 -8.3125 5.859375 -8.3125 C 6.296875 -8.3125 6.648438 -8.210938 6.921875 -8.015625 L 5.9375 -6.140625 C 5.84375 -6.191406 5.734375 -6.234375 5.609375 -6.265625 C 5.484375 -6.304688 5.34375 -6.328125 5.1875 -6.328125 C 4.726562 -6.328125 4.3125 -6.171875 3.9375 -5.859375 C 3.570312 -5.546875 3.347656 -5.140625 3.265625 -4.640625 L 2.5 0 Z M 0.21875 0 "/></g></g></g><g fill="#e80f17" fill-opacity="1"><g transform="translate(251.808852, 152.699883)"><g><path d="M 8 -5.859375 L 5.9375 -5.734375 C 5.925781 -5.992188 5.828125 -6.21875 5.640625 -6.40625 C 5.453125 -6.59375 5.171875 -6.6875 4.796875 -6.6875 C 4.421875 -6.6875 4.085938 -6.597656 3.796875 -6.421875 C 3.503906 -6.253906 3.335938 -6.039062 3.296875 -5.78125 C 3.265625 -5.601562 3.304688 -5.457031 3.421875 -5.34375 C 3.546875 -5.226562 3.796875 -5.128906 4.171875 -5.046875 L 5.609375 -4.75 C 7.148438 -4.414062 7.828125 -3.644531 7.640625 -2.4375 C 7.546875 -1.914062 7.316406 -1.457031 6.953125 -1.0625 C 6.585938 -0.675781 6.117188 -0.375 5.546875 -0.15625 C 4.972656 0.0507812 4.335938 0.15625 3.640625 0.15625 C 2.535156 0.15625 1.691406 -0.0664062 1.109375 -0.515625 C 0.523438 -0.972656 0.242188 -1.59375 0.265625 -2.375 L 2.484375 -2.484375 C 2.523438 -1.816406 2.941406 -1.484375 3.734375 -1.484375 C 4.148438 -1.472656 4.503906 -1.554688 4.796875 -1.734375 C 5.097656 -1.921875 5.269531 -2.144531 5.3125 -2.40625 C 5.34375 -2.59375 5.289062 -2.742188 5.15625 -2.859375 C 5.019531 -2.972656 4.78125 -3.066406 4.4375 -3.140625 L 3.0625 -3.421875 C 1.5 -3.734375 0.828125 -4.546875 1.046875 -5.859375 C 1.179688 -6.617188 1.59375 -7.210938 2.28125 -7.640625 C 2.96875 -8.078125 3.816406 -8.296875 4.828125 -8.296875 C 5.890625 -8.296875 6.691406 -8.078125 7.234375 -7.640625 C 7.773438 -7.203125 8.03125 -6.609375 8 -5.859375 Z M 8 -5.859375 "/></g></g></g><g fill="#e80f17" fill-opacity="1"><g transform="translate(262.447964, 152.699883)"><g/></g></g><g fill="#e80f17" fill-opacity="1"><g transform="translate(268.135856, 152.699883)"><g><path d="M 0.265625 0 L 2.078125 -10.921875 L 6.390625 -10.921875 C 7.210938 -10.921875 7.890625 -10.765625 8.421875 -10.453125 C 8.953125 -10.140625 9.328125 -9.703125 9.546875 -9.140625 C 9.765625 -8.585938 9.8125 -7.945312 9.6875 -7.21875 C 9.570312 -6.488281 9.3125 -5.847656 8.90625 -5.296875 C 8.5 -4.742188 7.972656 -4.3125 7.328125 -4 C 6.679688 -3.695312 5.941406 -3.546875 5.109375 -3.546875 L 3.171875 -3.546875 L 2.578125 0 Z M 3.484375 -5.390625 L 5.03125 -5.390625 C 5.695312 -5.390625 6.21875 -5.554688 6.59375 -5.890625 C 6.976562 -6.234375 7.21875 -6.675781 7.3125 -7.21875 C 7.394531 -7.769531 7.300781 -8.207031 7.03125 -8.53125 C 6.769531 -8.863281 6.304688 -9.03125 5.640625 -9.03125 L 4.078125 -9.03125 Z M 3.484375 -5.390625 "/></g></g></g><g fill="#e80f17" fill-opacity="1"><g transform="translate(280.054078, 152.699883)"><g><path d="M 9.21875 -8.1875 L 5 0 L 2.4375 0 L 0.9375 -8.1875 L 3.328125 -8.1875 L 4.046875 -2.328125 L 4.125 -2.328125 L 6.796875 -8.1875 Z M 9.21875 -8.1875 "/></g></g></g><g fill="#e80f17" fill-opacity="1"><g transform="translate(291.055595, 152.699883)"><g><path d="M 5.953125 -8.1875 L 5.65625 -6.484375 L 4.109375 -6.484375 L 3.453125 -2.515625 C 3.398438 -2.203125 3.4375 -1.988281 3.5625 -1.875 C 3.6875 -1.769531 3.863281 -1.71875 4.09375 -1.71875 C 4.195312 -1.71875 4.300781 -1.726562 4.40625 -1.75 C 4.519531 -1.769531 4.609375 -1.785156 4.671875 -1.796875 L 4.75 -0.09375 C 4.625 -0.0625 4.453125 -0.0234375 4.234375 0.015625 C 4.023438 0.0664062 3.773438 0.0976562 3.484375 0.109375 C 2.648438 0.140625 2.015625 -0.0351562 1.578125 -0.421875 C 1.140625 -0.816406 0.992188 -1.414062 1.140625 -2.21875 L 1.84375 -6.484375 L 0.71875 -6.484375 L 1.015625 -8.1875 L 2.125 -8.1875 L 2.453125 -10.15625 L 4.71875 -10.15625 L 4.40625 -8.1875 Z M 5.953125 -8.1875 "/></g></g></g><g fill="#e80f17" fill-opacity="1"><g transform="translate(299.093853, 152.699883)"><g><path d="M 1.453125 -4.375 C 1.878906 -6.988281 2.96875 -9.238281 4.71875 -11.125 L 6.90625 -11.125 C 6.457031 -10.65625 6.019531 -10.050781 5.59375 -9.3125 C 5.175781 -8.582031 4.8125 -7.785156 4.5 -6.921875 C 4.1875 -6.066406 3.957031 -5.21875 3.8125 -4.375 C 3.675781 -3.53125 3.617188 -2.675781 3.640625 -1.8125 C 3.671875 -0.957031 3.773438 -0.164062 3.953125 0.5625 C 4.128906 1.300781 4.363281 1.90625 4.65625 2.375 L 2.484375 2.375 C 1.367188 0.5 1.023438 -1.75 1.453125 -4.375 Z M 1.453125 -4.375 "/></g></g></g><g fill="#e80f17" fill-opacity="1"><g transform="translate(307.441232, 152.699883)"><g><path d="M 0.265625 0 L 2.078125 -10.921875 L 4.390625 -10.921875 L 2.890625 -1.90625 L 7.578125 -1.90625 L 7.25 0 Z M 0.265625 0 "/></g></g></g><g fill="#e80f17" fill-opacity="1"><g transform="translate(318.165621, 152.699883)"><g><path d="M 5.953125 -8.1875 L 5.65625 -6.484375 L 4.109375 -6.484375 L 3.453125 -2.515625 C 3.398438 -2.203125 3.4375 -1.988281 3.5625 -1.875 C 3.6875 -1.769531 3.863281 -1.71875 4.09375 -1.71875 C 4.195312 -1.71875 4.300781 -1.726562 4.40625 -1.75 C 4.519531 -1.769531 4.609375 -1.785156 4.671875 -1.796875 L 4.75 -0.09375 C 4.625 -0.0625 4.453125 -0.0234375 4.234375 0.015625 C 4.023438 0.0664062 3.773438 0.0976562 3.484375 0.109375 C 2.648438 0.140625 2.015625 -0.0351562 1.578125 -0.421875 C 1.140625 -0.816406 0.992188 -1.414062 1.140625 -2.21875 L 1.84375 -6.484375 L 0.71875 -6.484375 L 1.015625 -8.1875 L 2.125 -8.1875 L 2.453125 -10.15625 L 4.71875 -10.15625 L 4.40625 -8.1875 Z M 5.953125 -8.1875 "/></g></g></g><g fill="#e80f17" fill-opacity="1"><g transform="translate(326.20388, 152.699883)"><g><path d="M 3.234375 0.140625 C 2.609375 0.140625 2.070312 -0.0195312 1.625 -0.34375 C 1.175781 -0.664062 0.859375 -1.140625 0.671875 -1.765625 C 0.484375 -2.398438 0.460938 -3.171875 0.609375 -4.078125 C 0.765625 -5.023438 1.046875 -5.804688 1.453125 -6.421875 C 1.859375 -7.046875 2.335938 -7.515625 2.890625 -7.828125 C 3.441406 -8.140625 4.019531 -8.296875 4.625 -8.296875 C 5.082031 -8.296875 5.453125 -8.21875 5.734375 -8.0625 C 6.015625 -7.90625 6.226562 -7.710938 6.375 -7.484375 C 6.53125 -7.265625 6.640625 -7.039062 6.703125 -6.8125 L 6.765625 -6.8125 L 7.453125 -10.921875 L 9.71875 -10.921875 L 7.90625 0 L 5.671875 0 L 5.890625 -1.3125 L 5.796875 -1.3125 C 5.648438 -1.082031 5.460938 -0.851562 5.234375 -0.625 C 5.003906 -0.40625 4.722656 -0.222656 4.390625 -0.078125 C 4.054688 0.0664062 3.671875 0.140625 3.234375 0.140625 Z M 4.234375 -1.671875 C 4.785156 -1.671875 5.25 -1.890625 5.625 -2.328125 C 6 -2.773438 6.25 -3.363281 6.375 -4.09375 C 6.488281 -4.820312 6.429688 -5.398438 6.203125 -5.828125 C 5.972656 -6.265625 5.582031 -6.484375 5.03125 -6.484375 C 4.46875 -6.484375 4.003906 -6.257812 3.640625 -5.8125 C 3.285156 -5.375 3.050781 -4.800781 2.9375 -4.09375 C 2.8125 -3.375 2.851562 -2.789062 3.0625 -2.34375 C 3.28125 -1.894531 3.671875 -1.671875 4.234375 -1.671875 Z M 4.234375 -1.671875 "/></g></g></g><g fill="#e80f17" fill-opacity="1"><g transform="translate(337.951555, 152.699883)"><g><path d="M 4.78125 -4.375 C 4.351562 -1.757812 3.265625 0.488281 1.515625 2.375 L -0.671875 2.375 C -0.222656 1.90625 0.207031 1.300781 0.625 0.5625 C 1.050781 -0.164062 1.421875 -0.957031 1.734375 -1.8125 C 2.046875 -2.675781 2.273438 -3.53125 2.421875 -4.375 C 2.554688 -5.21875 2.609375 -6.066406 2.578125 -6.921875 C 2.554688 -7.785156 2.457031 -8.582031 2.28125 -9.3125 C 2.101562 -10.050781 1.867188 -10.65625 1.578125 -11.125 L 3.75 -11.125 C 4.863281 -9.25 5.207031 -7 4.78125 -4.375 Z M 4.78125 -4.375 "/></g></g></g><path stroke-linecap="butt" transform="matrix(0.748005, 0.000000000000000318, -0.000000000000000318, 0.748005, 30.892167, 145.261074)" fill="none" stroke-linejoin="miter" d="M -0.00206204 4.001084 L 200.818508 4.001084 " stroke="#e80f17" stroke-width="8" stroke-opacity="1" stroke-miterlimit="4"/></svg>