<svg xmlns="http://www.w3.org/2000/svg" xmlns:xlink="http://www.w3.org/1999/xlink" width="500" zoomAndPan="magnify" viewBox="0 0 375 187.499995" height="250" preserveAspectRatio="xMidYMid meet" version="1.0"><defs><g/><clipPath id="2449ca4506"><path d="M 34 38.421875 L 351.863281 38.421875 L 351.863281 84 L 34 84 Z M 34 38.421875 " clip-rule="nonzero"/></clipPath><clipPath id="50c731dd59"><path d="M 30.21875 78 L 137 78 L 137 103 L 30.21875 103 Z M 30.21875 78 " clip-rule="nonzero"/></clipPath></defs><g clip-path="url(#2449ca4506)"><path fill="#25366c" d="M 59.703125 70.933594 C 63.667969 70.1875 67.59375 69.203125 71.457031 68.003906 C 75.316406 66.789062 79.132812 65.398438 82.902344 63.867188 C 86.675781 62.332031 90.425781 60.6875 94.179688 58.980469 L 105.535156 53.785156 C 109.367188 52.046875 113.269531 50.332031 117.289062 48.710938 C 118.300781 48.308594 119.296875 47.898438 120.328125 47.515625 L 121.859375 46.933594 L 123.414062 46.367188 C 124.441406 45.984375 125.503906 45.636719 126.546875 45.269531 C 127.074219 45.089844 127.609375 44.921875 128.136719 44.746094 C 128.671875 44.574219 129.195312 44.394531 129.738281 44.234375 C 130.816406 43.910156 131.886719 43.578125 132.984375 43.28125 C 133.53125 43.128906 134.074219 42.972656 134.625 42.828125 L 136.285156 42.414062 C 137.390625 42.136719 138.492188 41.847656 139.617188 41.621094 L 141.292969 41.261719 C 141.855469 41.144531 142.410156 41.015625 142.976562 40.921875 L 146.367188 40.3125 L 149.785156 39.804688 C 150.070312 39.765625 150.351562 39.714844 150.636719 39.683594 L 151.496094 39.582031 L 153.210938 39.378906 C 153.785156 39.316406 154.355469 39.234375 154.929688 39.191406 L 156.652344 39.039062 C 161.242188 38.636719 165.851562 38.449219 170.441406 38.496094 C 175.03125 38.542969 179.601562 38.765625 184.125 39.175781 C 193.179688 39.988281 202.039062 41.523438 210.648438 43.503906 C 219.25 45.511719 227.609375 47.980469 235.707031 50.820312 C 239.753906 52.242188 243.75 53.734375 247.667969 55.328125 C 251.589844 56.914062 255.449219 58.578125 259.242188 60.316406 C 251.121094 57.601562 242.9375 55.03125 234.605469 52.832031 C 226.292969 50.597656 217.839844 48.714844 209.304688 47.25 C 205.039062 46.515625 200.738281 45.925781 196.4375 45.441406 C 194.285156 45.1875 192.128906 45 189.972656 44.816406 L 186.734375 44.59375 C 185.65625 44.523438 184.574219 44.488281 183.496094 44.433594 C 179.179688 44.253906 174.867188 44.214844 170.582031 44.359375 L 167.375 44.507812 C 166.308594 44.574219 165.246094 44.660156 164.179688 44.734375 L 163.382812 44.792969 L 162.589844 44.871094 L 161.003906 45.023438 C 160.476562 45.078125 159.945312 45.121094 159.421875 45.183594 L 157.84375 45.382812 L 156.269531 45.578125 C 155.746094 45.636719 155.230469 45.734375 154.707031 45.8125 L 153.148438 46.054688 L 152.367188 46.175781 C 152.109375 46.214844 151.855469 46.269531 151.597656 46.316406 L 148.511719 46.890625 L 145.46875 47.558594 C 144.957031 47.664062 144.460938 47.800781 143.960938 47.925781 L 142.457031 48.300781 C 141.449219 48.535156 140.472656 48.832031 139.488281 49.113281 L 138.011719 49.535156 C 137.519531 49.679688 137.039062 49.839844 136.550781 49.992188 C 135.578125 50.289062 134.617188 50.625 133.652344 50.949219 C 125.957031 53.613281 118.597656 57.015625 111.21875 60.589844 C 103.835938 64.164062 96.40625 67.933594 88.433594 71.332031 C 86.910156 71.980469 85.363281 72.613281 83.796875 73.226562 C 88.519531 73.589844 93.257812 73.863281 98.003906 74.066406 L 102.511719 74.230469 L 107.027344 74.339844 C 108.53125 74.382812 110.042969 74.382812 111.546875 74.40625 L 113.808594 74.429688 C 114.5625 74.4375 115.320312 74.429688 116.074219 74.429688 C 122.109375 74.457031 128.15625 74.332031 134.207031 74.152344 C 140.261719 73.972656 146.320312 73.691406 152.382812 73.355469 C 158.445312 73.019531 164.511719 72.632812 170.582031 72.183594 C 182.726562 71.316406 194.882812 70.261719 207.078125 69.238281 C 219.269531 68.207031 231.5 67.183594 243.777344 66.351562 L 248.386719 66.046875 C 249.917969 65.945312 251.457031 65.847656 252.996094 65.757812 C 256.074219 65.578125 259.164062 65.417969 262.253906 65.277344 C 263.800781 65.203125 265.351562 65.152344 266.894531 65.089844 L 271.546875 64.941406 C 273.101562 64.914062 274.652344 64.878906 276.207031 64.863281 L 278.539062 64.847656 C 279.316406 64.839844 280.09375 64.835938 280.875 64.84375 C 282.429688 64.855469 283.984375 64.851562 285.542969 64.890625 L 287.878906 64.933594 C 288.65625 64.953125 289.4375 64.984375 290.214844 65.011719 L 292.546875 65.101562 L 294.882812 65.222656 C 296.4375 65.292969 297.992188 65.414062 299.542969 65.523438 C 305.753906 65.972656 311.925781 66.722656 318 67.789062 C 324.070312 68.871094 330.019531 70.300781 335.730469 72.121094 C 341.441406 73.9375 346.925781 76.132812 351.988281 78.75 C 341.042969 74.535156 329.242188 71.902344 317.28125 70.59375 C 305.296875 69.261719 293.152344 69.238281 281.066406 69.785156 C 280.3125 69.816406 279.558594 69.855469 278.800781 69.902344 L 276.535156 70.027344 C 275.023438 70.117188 273.511719 70.230469 272 70.328125 L 267.46875 70.664062 C 265.957031 70.792969 264.445312 70.910156 262.933594 71.046875 C 259.914062 71.316406 256.890625 71.601562 253.863281 71.910156 C 250.839844 72.203125 247.808594 72.519531 244.78125 72.835938 C 232.671875 74.125 220.558594 75.515625 208.410156 76.871094 C 184.113281 79.570312 159.613281 82.105469 134.757812 83.066406 C 122.339844 83.550781 109.84375 83.617188 97.339844 83.105469 C 91.089844 82.828125 84.835938 82.445312 78.605469 81.855469 C 72.375 81.265625 66.167969 80.507812 59.996094 79.582031 L 34.242188 75.714844 Z M 59.703125 70.933594 " fill-opacity="1" fill-rule="nonzero"/></g><g clip-path="url(#50c731dd59)"><path fill="#e80f17" d="M 128.046875 97.285156 C 118.449219 99.382812 108.714844 100.933594 98.929688 101.828125 C 86.65625 102.953125 74.15625 103.113281 61.960938 101.144531 C 56.027344 100.1875 50.152344 98.703125 44.59375 96.402344 C 40.035156 94.515625 31.40625 91.445312 30.585938 85.777344 C 30.292969 83.769531 30.214844 80.730469 32.742188 79.164062 C 35.996094 77.144531 40.363281 79.179688 43.410156 80.335938 C 47.050781 81.722656 50.636719 83.191406 54.566406 84.269531 C 59.476562 85.613281 64.554688 86.730469 69.683594 87.722656 C 75.464844 88.84375 81.347656 89.847656 87.292969 90.597656 C 84.359375 91.085938 79.484375 91.742188 76.847656 92.070312 C 73.695312 92.464844 70.527344 92.808594 67.339844 93.085938 C 63.992188 93.375 60.527344 93.589844 57.0625 93.707031 C 72.484375 96.800781 98.75 99.515625 136.945312 95.128906 C 133.945312 95.898438 130.945312 96.652344 128.046875 97.285156 Z M 128.046875 97.285156 " fill-opacity="1" fill-rule="nonzero"/></g><g fill="#25366c" fill-opacity="1"><g transform="translate(27.464233, 140.038456)"><g><path d="M 19.265625 -19.984375 C 19.316406 -21.128906 18.984375 -22.015625 18.265625 -22.640625 C 17.546875 -23.265625 16.476562 -23.578125 15.0625 -23.578125 C 13.601562 -23.578125 12.4375 -23.28125 11.5625 -22.6875 C 10.695312 -22.09375 10.1875 -21.335938 10.03125 -20.421875 C 9.820312 -19.421875 10.125 -18.65625 10.9375 -18.125 C 11.75 -17.601562 12.738281 -17.207031 13.90625 -16.9375 L 16.328125 -16.328125 C 17.890625 -15.960938 19.25 -15.429688 20.40625 -14.734375 C 21.5625 -14.035156 22.414062 -13.140625 22.96875 -12.046875 C 23.519531 -10.953125 23.660156 -9.617188 23.390625 -8.046875 C 22.960938 -5.472656 21.664062 -3.421875 19.5 -1.890625 C 17.332031 -0.359375 14.523438 0.40625 11.078125 0.40625 C 7.671875 0.40625 5.070312 -0.375 3.28125 -1.9375 C 1.5 -3.507812 0.820312 -5.8125 1.25 -8.84375 L 7.015625 -8.84375 C 6.867188 -7.425781 7.242188 -6.363281 8.140625 -5.65625 C 9.046875 -4.945312 10.273438 -4.59375 11.828125 -4.59375 C 13.359375 -4.59375 14.625 -4.910156 15.625 -5.546875 C 16.632812 -6.191406 17.222656 -7.03125 17.390625 -8.0625 C 17.554688 -9.007812 17.265625 -9.742188 16.515625 -10.265625 C 15.765625 -10.785156 14.648438 -11.222656 13.171875 -11.578125 L 10.234375 -12.359375 C 7.972656 -12.929688 6.253906 -13.832031 5.078125 -15.0625 C 3.910156 -16.300781 3.492188 -17.957031 3.828125 -20.03125 C 4.117188 -21.738281 4.828125 -23.226562 5.953125 -24.5 C 7.085938 -25.78125 8.519531 -26.773438 10.25 -27.484375 C 11.976562 -28.203125 13.867188 -28.5625 15.921875 -28.5625 C 18.015625 -28.5625 19.78125 -28.195312 21.21875 -27.46875 C 22.664062 -26.75 23.71875 -25.75 24.375 -24.46875 C 25.03125 -23.1875 25.234375 -21.691406 24.984375 -19.984375 Z M 19.265625 -19.984375 "/></g></g></g><g fill="#25366c" fill-opacity="1"><g transform="translate(52.819454, 140.038456)"><g><path d="M 5.546875 0 L -0.84375 0 L 13.5625 -28.171875 L 21.234375 -28.171875 L 26.265625 0 L 19.890625 0 L 18.875 -6.421875 L 8.703125 -6.421875 Z M 10.984375 -11.078125 L 18.140625 -11.078125 L 16.46875 -21.734375 L 16.25 -21.734375 Z M 10.984375 -11.078125 "/></g></g></g><g fill="#25366c" fill-opacity="1"><g transform="translate(81.777204, 140.038456)"><g><path d="M 5.359375 -28.171875 L 12.703125 -28.171875 L 17.34375 -9.25 L 17.671875 -9.25 L 28.5625 -28.171875 L 35.90625 -28.171875 L 31.21875 0 L 25.453125 0 L 28.5 -18.328125 L 28.25 -18.328125 L 17.96875 -0.140625 L 14.015625 -0.140625 L 9.78125 -18.40625 L 9.546875 -18.40625 L 6.46875 0 L 0.6875 0 Z M 5.359375 -28.171875 "/></g></g></g><g fill="#25366c" fill-opacity="1"><g transform="translate(117.197508, 140.038456)"><g><path d="M 5.546875 0 L -0.84375 0 L 13.5625 -28.171875 L 21.234375 -28.171875 L 26.265625 0 L 19.890625 0 L 18.875 -6.421875 L 8.703125 -6.421875 Z M 10.984375 -11.078125 L 18.140625 -11.078125 L 16.46875 -21.734375 L 16.25 -21.734375 Z M 10.984375 -11.078125 "/></g></g></g><g fill="#25366c" fill-opacity="1"><g transform="translate(146.155258, 140.038456)"><g><path d="M 0.6875 0 L 5.359375 -28.171875 L 16.484375 -28.171875 C 19.679688 -28.171875 22.019531 -27.332031 23.5 -25.65625 C 24.988281 -23.988281 25.503906 -21.757812 25.046875 -18.96875 C 24.734375 -17.039062 24.03125 -15.394531 22.9375 -14.03125 C 21.851562 -12.664062 20.453125 -11.640625 18.734375 -10.953125 L 22.90625 0 L 16.328125 0 L 12.640625 -9.984375 L 8.3125 -9.984375 L 6.640625 0 Z M 9.109375 -14.765625 L 13.15625 -14.765625 C 16.53125 -14.765625 18.445312 -16.164062 18.90625 -18.96875 C 19.375 -21.851562 17.921875 -23.296875 14.546875 -23.296875 L 10.53125 -23.296875 Z M 9.109375 -14.765625 "/></g></g></g><g fill="#25366c" fill-opacity="1"><g transform="translate(171.799233, 140.038456)"><g><path d="M 5.546875 0 L -0.84375 0 L 13.5625 -28.171875 L 21.234375 -28.171875 L 26.265625 0 L 19.890625 0 L 18.875 -6.421875 L 8.703125 -6.421875 Z M 10.984375 -11.078125 L 18.140625 -11.078125 L 16.46875 -21.734375 L 16.25 -21.734375 Z M 10.984375 -11.078125 "/></g></g></g><g fill="#25366c" fill-opacity="1"><g transform="translate(200.756984, 140.038456)"><g><path d="M 19.265625 -19.984375 C 19.316406 -21.128906 18.984375 -22.015625 18.265625 -22.640625 C 17.546875 -23.265625 16.476562 -23.578125 15.0625 -23.578125 C 13.601562 -23.578125 12.4375 -23.28125 11.5625 -22.6875 C 10.695312 -22.09375 10.1875 -21.335938 10.03125 -20.421875 C 9.820312 -19.421875 10.125 -18.65625 10.9375 -18.125 C 11.75 -17.601562 12.738281 -17.207031 13.90625 -16.9375 L 16.328125 -16.328125 C 17.890625 -15.960938 19.25 -15.429688 20.40625 -14.734375 C 21.5625 -14.035156 22.414062 -13.140625 22.96875 -12.046875 C 23.519531 -10.953125 23.660156 -9.617188 23.390625 -8.046875 C 22.960938 -5.472656 21.664062 -3.421875 19.5 -1.890625 C 17.332031 -0.359375 14.523438 0.40625 11.078125 0.40625 C 7.671875 0.40625 5.070312 -0.375 3.28125 -1.9375 C 1.5 -3.507812 0.820312 -5.8125 1.25 -8.84375 L 7.015625 -8.84375 C 6.867188 -7.425781 7.242188 -6.363281 8.140625 -5.65625 C 9.046875 -4.945312 10.273438 -4.59375 11.828125 -4.59375 C 13.359375 -4.59375 14.625 -4.910156 15.625 -5.546875 C 16.632812 -6.191406 17.222656 -7.03125 17.390625 -8.0625 C 17.554688 -9.007812 17.265625 -9.742188 16.515625 -10.265625 C 15.765625 -10.785156 14.648438 -11.222656 13.171875 -11.578125 L 10.234375 -12.359375 C 7.972656 -12.929688 6.253906 -13.832031 5.078125 -15.0625 C 3.910156 -16.300781 3.492188 -17.957031 3.828125 -20.03125 C 4.117188 -21.738281 4.828125 -23.226562 5.953125 -24.5 C 7.085938 -25.78125 8.519531 -26.773438 10.25 -27.484375 C 11.976562 -28.203125 13.867188 -28.5625 15.921875 -28.5625 C 18.015625 -28.5625 19.78125 -28.195312 21.21875 -27.46875 C 22.664062 -26.75 23.71875 -25.75 24.375 -24.46875 C 25.03125 -23.1875 25.234375 -21.691406 24.984375 -19.984375 Z M 19.265625 -19.984375 "/></g></g></g><g fill="#25366c" fill-opacity="1"><g transform="translate(226.112205, 140.038456)"><g><path d="M 11.328125 -28.171875 L 6.640625 0 L 0.6875 0 L 5.359375 -28.171875 Z M 11.328125 -28.171875 "/></g></g></g><g fill="#25366c" fill-opacity="1"><g transform="translate(236.974796, 140.038456)"><g><path d="M 28.921875 -28.171875 L 24.25 0 L 19.109375 0 L 9.828125 -17.734375 L 9.59375 -17.734375 L 6.640625 0 L 0.6875 0 L 5.359375 -28.171875 L 10.59375 -28.171875 L 19.828125 -10.453125 L 20.0625 -10.453125 L 23 -28.171875 Z M 28.921875 -28.171875 "/></g></g></g><g fill="#25366c" fill-opacity="1"><g transform="translate(265.437538, 140.038456)"><g><path d="M 22.53125 -19.0625 C 22.382812 -20.382812 21.914062 -21.414062 21.125 -22.15625 C 20.332031 -22.90625 19.171875 -23.28125 17.640625 -23.28125 C 16.191406 -23.28125 14.84375 -22.921875 13.59375 -22.203125 C 12.34375 -21.492188 11.273438 -20.457031 10.390625 -19.09375 C 9.515625 -17.726562 8.914062 -16.066406 8.59375 -14.109375 C 8.113281 -11.171875 8.363281 -8.898438 9.34375 -7.296875 C 10.320312 -5.691406 11.925781 -4.890625 14.15625 -4.890625 C 16.144531 -4.890625 17.816406 -5.40625 19.171875 -6.4375 C 20.535156 -7.46875 21.378906 -8.851562 21.703125 -10.59375 L 15.671875 -10.59375 L 16.40625 -15.078125 L 28.203125 -15.078125 L 27.59375 -11.53125 C 27.195312 -9.050781 26.328125 -6.921875 24.984375 -5.140625 C 23.648438 -3.359375 21.984375 -1.988281 19.984375 -1.03125 C 17.992188 -0.0820312 15.8125 0.390625 13.4375 0.390625 C 10.800781 0.390625 8.582031 -0.191406 6.78125 -1.359375 C 4.976562 -2.535156 3.695312 -4.203125 2.9375 -6.359375 C 2.175781 -8.515625 2.039062 -11.082031 2.53125 -14.0625 C 3.03125 -17.101562 4.039062 -19.703125 5.5625 -21.859375 C 7.09375 -24.023438 8.945312 -25.679688 11.125 -26.828125 C 13.3125 -27.984375 15.640625 -28.5625 18.109375 -28.5625 C 20.242188 -28.5625 22.101562 -28.15625 23.6875 -27.34375 C 25.269531 -26.539062 26.492188 -25.425781 27.359375 -24 C 28.234375 -22.570312 28.640625 -20.925781 28.578125 -19.0625 Z M 22.53125 -19.0625 "/></g></g></g><g fill="#25366c" fill-opacity="1"><g transform="translate(294.890296, 140.038456)"><g><path d="M 0.6875 0 L 5.359375 -28.171875 L 11.328125 -28.171875 L 9.390625 -16.546875 L 21.484375 -16.546875 L 23.40625 -28.171875 L 29.359375 -28.171875 L 24.671875 0 L 18.734375 0 L 20.65625 -11.640625 L 8.5625 -11.640625 L 6.640625 0 Z M 0.6875 0 "/></g></g></g><g fill="#25366c" fill-opacity="1"><g transform="translate(323.779294, 140.038456)"><g><path d="M 0.6875 0 L 5.359375 -28.171875 L 24.34375 -28.171875 L 23.515625 -23.265625 L 10.5 -23.265625 L 9.390625 -16.546875 L 21.4375 -16.546875 L 20.625 -11.640625 L 8.5625 -11.640625 L 7.46875 -4.90625 L 20.546875 -4.90625 L 19.71875 0 Z M 0.6875 0 "/></g></g></g><g fill="#e80f17" fill-opacity="1"><g transform="translate(199.422024, 163.58148)"><g><path d="M 2.15625 -11.28125 L 5.09375 -11.28125 L 6.953125 -3.703125 L 7.078125 -3.703125 L 11.4375 -11.28125 L 14.375 -11.28125 L 12.5 0 L 10.1875 0 L 11.421875 -7.34375 L 11.3125 -7.34375 L 7.203125 -0.0625 L 5.609375 -0.0625 L 3.921875 -7.375 L 3.828125 -7.375 L 2.59375 0 L 0.28125 0 Z M 2.15625 -11.28125 "/></g></g></g><g fill="#e80f17" fill-opacity="1"><g transform="translate(215.87953, 163.58148)"><g><path d="M 4.0625 0.171875 C 3.195312 0.171875 2.484375 -0.0078125 1.921875 -0.375 C 1.359375 -0.75 0.960938 -1.265625 0.734375 -1.921875 C 0.503906 -2.585938 0.460938 -3.359375 0.609375 -4.234375 C 0.742188 -5.097656 1.03125 -5.851562 1.46875 -6.5 C 1.914062 -7.15625 2.476562 -7.664062 3.15625 -8.03125 C 3.832031 -8.394531 4.597656 -8.578125 5.453125 -8.578125 C 6.316406 -8.578125 7.03125 -8.390625 7.59375 -8.015625 C 8.15625 -7.648438 8.550781 -7.132812 8.78125 -6.46875 C 9.007812 -5.8125 9.054688 -5.046875 8.921875 -4.171875 C 8.773438 -3.304688 8.476562 -2.546875 8.03125 -1.890625 C 7.59375 -1.242188 7.035156 -0.738281 6.359375 -0.375 C 5.679688 -0.0078125 4.914062 0.171875 4.0625 0.171875 Z M 4.296875 -1.65625 C 4.890625 -1.65625 5.378906 -1.898438 5.765625 -2.390625 C 6.160156 -2.878906 6.421875 -3.5 6.546875 -4.25 C 6.671875 -4.976562 6.625 -5.582031 6.40625 -6.0625 C 6.195312 -6.539062 5.800781 -6.78125 5.21875 -6.78125 C 4.625 -6.78125 4.128906 -6.53125 3.734375 -6.03125 C 3.347656 -5.539062 3.09375 -4.921875 2.96875 -4.171875 C 2.851562 -3.441406 2.898438 -2.835938 3.109375 -2.359375 C 3.328125 -1.890625 3.722656 -1.65625 4.296875 -1.65625 Z M 4.296875 -1.65625 "/></g></g></g><g fill="#e80f17" fill-opacity="1"><g transform="translate(227.670029, 163.58148)"><g><path d="M 6.140625 -8.46875 L 5.84375 -6.703125 L 4.25 -6.703125 L 3.578125 -2.59375 C 3.515625 -2.269531 3.546875 -2.050781 3.671875 -1.9375 C 3.804688 -1.832031 3.992188 -1.78125 4.234375 -1.78125 C 4.335938 -1.78125 4.445312 -1.785156 4.5625 -1.796875 C 4.675781 -1.816406 4.765625 -1.832031 4.828125 -1.84375 L 4.921875 -0.109375 C 4.785156 -0.0664062 4.609375 -0.0195312 4.390625 0.03125 C 4.171875 0.0820312 3.90625 0.109375 3.59375 0.109375 C 2.726562 0.148438 2.070312 -0.03125 1.625 -0.4375 C 1.175781 -0.84375 1.023438 -1.460938 1.171875 -2.296875 L 1.90625 -6.703125 L 0.75 -6.703125 L 1.046875 -8.46875 L 2.203125 -8.46875 L 2.53125 -10.484375 L 4.875 -10.484375 L 4.546875 -8.46875 Z M 6.140625 -8.46875 "/></g></g></g><g fill="#e80f17" fill-opacity="1"><g transform="translate(235.971295, 163.58148)"><g><path d="M 4.0625 0.171875 C 3.195312 0.171875 2.484375 -0.0078125 1.921875 -0.375 C 1.359375 -0.75 0.960938 -1.265625 0.734375 -1.921875 C 0.503906 -2.585938 0.460938 -3.359375 0.609375 -4.234375 C 0.742188 -5.097656 1.03125 -5.851562 1.46875 -6.5 C 1.914062 -7.15625 2.476562 -7.664062 3.15625 -8.03125 C 3.832031 -8.394531 4.597656 -8.578125 5.453125 -8.578125 C 6.316406 -8.578125 7.03125 -8.390625 7.59375 -8.015625 C 8.15625 -7.648438 8.550781 -7.132812 8.78125 -6.46875 C 9.007812 -5.8125 9.054688 -5.046875 8.921875 -4.171875 C 8.773438 -3.304688 8.476562 -2.546875 8.03125 -1.890625 C 7.59375 -1.242188 7.035156 -0.738281 6.359375 -0.375 C 5.679688 -0.0078125 4.914062 0.171875 4.0625 0.171875 Z M 4.296875 -1.65625 C 4.890625 -1.65625 5.378906 -1.898438 5.765625 -2.390625 C 6.160156 -2.878906 6.421875 -3.5 6.546875 -4.25 C 6.671875 -4.976562 6.625 -5.582031 6.40625 -6.0625 C 6.195312 -6.539062 5.800781 -6.78125 5.21875 -6.78125 C 4.625 -6.78125 4.128906 -6.53125 3.734375 -6.03125 C 3.347656 -5.539062 3.09375 -4.921875 2.96875 -4.171875 C 2.851562 -3.441406 2.898438 -2.835938 3.109375 -2.359375 C 3.328125 -1.890625 3.722656 -1.65625 4.296875 -1.65625 Z M 4.296875 -1.65625 "/></g></g></g><g fill="#e80f17" fill-opacity="1"><g transform="translate(247.761793, 163.58148)"><g><path d="M 0.234375 0 L 1.640625 -8.46875 L 3.921875 -8.46875 L 3.671875 -6.984375 L 3.75 -6.984375 C 4 -7.515625 4.328125 -7.910156 4.734375 -8.171875 C 5.140625 -8.441406 5.582031 -8.578125 6.0625 -8.578125 C 6.507812 -8.578125 6.875 -8.476562 7.15625 -8.28125 L 6.140625 -6.34375 C 6.035156 -6.394531 5.921875 -6.4375 5.796875 -6.46875 C 5.671875 -6.507812 5.523438 -6.53125 5.359375 -6.53125 C 4.890625 -6.53125 4.460938 -6.367188 4.078125 -6.046875 C 3.703125 -5.722656 3.460938 -5.300781 3.359375 -4.78125 L 2.578125 0 Z M 0.234375 0 "/></g></g></g><g fill="#e80f17" fill-opacity="1"><g transform="translate(256.684946, 163.58148)"><g><path d="M 8.265625 -6.046875 L 6.140625 -5.921875 C 6.117188 -6.203125 6.007812 -6.4375 5.8125 -6.625 C 5.625 -6.8125 5.335938 -6.90625 4.953125 -6.90625 C 4.566406 -6.90625 4.222656 -6.816406 3.921875 -6.640625 C 3.617188 -6.460938 3.445312 -6.238281 3.40625 -5.96875 C 3.375 -5.789062 3.421875 -5.640625 3.546875 -5.515625 C 3.671875 -5.398438 3.921875 -5.300781 4.296875 -5.21875 L 5.796875 -4.90625 C 7.390625 -4.5625 8.085938 -3.765625 7.890625 -2.515625 C 7.796875 -1.972656 7.554688 -1.5 7.171875 -1.09375 C 6.796875 -0.695312 6.3125 -0.382812 5.71875 -0.15625 C 5.132812 0.0625 4.484375 0.171875 3.765625 0.171875 C 2.617188 0.171875 1.742188 -0.0625 1.140625 -0.53125 C 0.546875 -1.007812 0.257812 -1.648438 0.28125 -2.453125 L 2.578125 -2.578125 C 2.617188 -1.878906 3.046875 -1.53125 3.859375 -1.53125 C 4.296875 -1.519531 4.664062 -1.609375 4.96875 -1.796875 C 5.28125 -1.984375 5.457031 -2.210938 5.5 -2.484375 C 5.519531 -2.679688 5.460938 -2.835938 5.328125 -2.953125 C 5.191406 -3.066406 4.941406 -3.164062 4.578125 -3.25 L 3.171875 -3.53125 C 1.554688 -3.863281 0.859375 -4.703125 1.078125 -6.046875 C 1.210938 -6.835938 1.632812 -7.457031 2.34375 -7.90625 C 3.0625 -8.351562 3.941406 -8.578125 4.984375 -8.578125 C 6.085938 -8.578125 6.914062 -8.347656 7.46875 -7.890625 C 8.03125 -7.441406 8.296875 -6.828125 8.265625 -6.046875 Z M 8.265625 -6.046875 "/></g></g></g><g fill="#e80f17" fill-opacity="1"><g transform="translate(267.671927, 163.58148)"><g/></g></g><g fill="#e80f17" fill-opacity="1"><g transform="translate(273.546121, 163.58148)"><g><path d="M 0.28125 0 L 2.15625 -11.28125 L 6.59375 -11.28125 C 7.457031 -11.28125 8.160156 -11.117188 8.703125 -10.796875 C 9.253906 -10.472656 9.640625 -10.019531 9.859375 -9.4375 C 10.085938 -8.863281 10.140625 -8.203125 10.015625 -7.453125 C 9.890625 -6.703125 9.617188 -6.039062 9.203125 -5.46875 C 8.785156 -4.90625 8.242188 -4.460938 7.578125 -4.140625 C 6.910156 -3.816406 6.140625 -3.65625 5.265625 -3.65625 L 3.265625 -3.65625 L 2.65625 0 Z M 3.59375 -5.578125 L 5.203125 -5.578125 C 5.890625 -5.578125 6.429688 -5.75 6.828125 -6.09375 C 7.222656 -6.445312 7.460938 -6.898438 7.546875 -7.453125 C 7.640625 -8.023438 7.546875 -8.476562 7.265625 -8.8125 C 6.992188 -9.15625 6.515625 -9.328125 5.828125 -9.328125 L 4.21875 -9.328125 Z M 3.59375 -5.578125 "/></g></g></g><g fill="#e80f17" fill-opacity="1"><g transform="translate(285.853955, 163.58148)"><g><path d="M 9.53125 -8.46875 L 5.15625 0 L 2.515625 0 L 0.96875 -8.46875 L 3.4375 -8.46875 L 4.1875 -2.40625 L 4.265625 -2.40625 L 7.03125 -8.46875 Z M 9.53125 -8.46875 "/></g></g></g><g fill="#e80f17" fill-opacity="1"><g transform="translate(297.215182, 163.58148)"><g><path d="M 6.140625 -8.46875 L 5.84375 -6.703125 L 4.25 -6.703125 L 3.578125 -2.59375 C 3.515625 -2.269531 3.546875 -2.050781 3.671875 -1.9375 C 3.804688 -1.832031 3.992188 -1.78125 4.234375 -1.78125 C 4.335938 -1.78125 4.445312 -1.785156 4.5625 -1.796875 C 4.675781 -1.816406 4.765625 -1.832031 4.828125 -1.84375 L 4.921875 -0.109375 C 4.785156 -0.0664062 4.609375 -0.0195312 4.390625 0.03125 C 4.171875 0.0820312 3.90625 0.109375 3.59375 0.109375 C 2.726562 0.148438 2.070312 -0.03125 1.625 -0.4375 C 1.175781 -0.84375 1.023438 -1.460938 1.171875 -2.296875 L 1.90625 -6.703125 L 0.75 -6.703125 L 1.046875 -8.46875 L 2.203125 -8.46875 L 2.53125 -10.484375 L 4.875 -10.484375 L 4.546875 -8.46875 Z M 6.140625 -8.46875 "/></g></g></g><g fill="#e80f17" fill-opacity="1"><g transform="translate(305.516446, 163.58148)"><g><path d="M 1.5 -4.53125 C 1.945312 -7.226562 3.070312 -9.550781 4.875 -11.5 L 7.125 -11.5 C 6.664062 -11.007812 6.21875 -10.382812 5.78125 -9.625 C 5.351562 -8.863281 4.976562 -8.039062 4.65625 -7.15625 C 4.332031 -6.269531 4.09375 -5.394531 3.9375 -4.53125 C 3.789062 -3.65625 3.734375 -2.773438 3.765625 -1.890625 C 3.796875 -1.003906 3.898438 -0.179688 4.078125 0.578125 C 4.265625 1.335938 4.507812 1.960938 4.8125 2.453125 L 2.578125 2.453125 C 1.410156 0.515625 1.050781 -1.8125 1.5 -4.53125 Z M 1.5 -4.53125 "/></g></g></g><g fill="#e80f17" fill-opacity="1"><g transform="translate(314.136908, 163.58148)"><g><path d="M 0.28125 0 L 2.15625 -11.28125 L 4.53125 -11.28125 L 2.984375 -1.96875 L 7.828125 -1.96875 L 7.5 0 Z M 0.28125 0 "/></g></g></g><g fill="#e80f17" fill-opacity="1"><g transform="translate(325.211949, 163.58148)"><g><path d="M 6.140625 -8.46875 L 5.84375 -6.703125 L 4.25 -6.703125 L 3.578125 -2.59375 C 3.515625 -2.269531 3.546875 -2.050781 3.671875 -1.9375 C 3.804688 -1.832031 3.992188 -1.78125 4.234375 -1.78125 C 4.335938 -1.78125 4.445312 -1.785156 4.5625 -1.796875 C 4.675781 -1.816406 4.765625 -1.832031 4.828125 -1.84375 L 4.921875 -0.109375 C 4.785156 -0.0664062 4.609375 -0.0195312 4.390625 0.03125 C 4.171875 0.0820312 3.90625 0.109375 3.59375 0.109375 C 2.726562 0.148438 2.070312 -0.03125 1.625 -0.4375 C 1.175781 -0.84375 1.023438 -1.460938 1.171875 -2.296875 L 1.90625 -6.703125 L 0.75 -6.703125 L 1.046875 -8.46875 L 2.203125 -8.46875 L 2.53125 -10.484375 L 4.875 -10.484375 L 4.546875 -8.46875 Z M 6.140625 -8.46875 "/></g></g></g><g fill="#e80f17" fill-opacity="1"><g transform="translate(333.513213, 163.58148)"><g><path d="M 3.34375 0.140625 C 2.695312 0.140625 2.140625 -0.0234375 1.671875 -0.359375 C 1.210938 -0.691406 0.882812 -1.179688 0.6875 -1.828125 C 0.488281 -2.472656 0.46875 -3.269531 0.625 -4.21875 C 0.789062 -5.1875 1.082031 -5.992188 1.5 -6.640625 C 1.914062 -7.285156 2.410156 -7.769531 2.984375 -8.09375 C 3.554688 -8.414062 4.15625 -8.578125 4.78125 -8.578125 C 5.25 -8.578125 5.628906 -8.492188 5.921875 -8.328125 C 6.210938 -8.171875 6.4375 -7.972656 6.59375 -7.734375 C 6.75 -7.503906 6.859375 -7.273438 6.921875 -7.046875 L 7 -7.046875 L 7.703125 -11.28125 L 10.046875 -11.28125 L 8.171875 0 L 5.859375 0 L 6.09375 -1.359375 L 5.984375 -1.359375 C 5.835938 -1.117188 5.644531 -0.882812 5.40625 -0.65625 C 5.164062 -0.425781 4.875 -0.234375 4.53125 -0.078125 C 4.195312 0.0664062 3.800781 0.140625 3.34375 0.140625 Z M 4.375 -1.734375 C 4.9375 -1.734375 5.410156 -1.960938 5.796875 -2.421875 C 6.191406 -2.878906 6.453125 -3.484375 6.578125 -4.234375 C 6.703125 -4.984375 6.644531 -5.582031 6.40625 -6.03125 C 6.164062 -6.476562 5.765625 -6.703125 5.203125 -6.703125 C 4.617188 -6.703125 4.140625 -6.472656 3.765625 -6.015625 C 3.390625 -5.554688 3.144531 -4.960938 3.03125 -4.234375 C 2.90625 -3.492188 2.953125 -2.890625 3.171875 -2.421875 C 3.398438 -1.960938 3.800781 -1.734375 4.375 -1.734375 Z M 4.375 -1.734375 "/></g></g></g><g fill="#e80f17" fill-opacity="1"><g transform="translate(345.644941, 163.58148)"><g><path d="M 4.953125 -4.515625 C 4.503906 -1.816406 3.378906 0.503906 1.578125 2.453125 L -0.671875 2.453125 C -0.210938 1.960938 0.226562 1.335938 0.65625 0.578125 C 1.09375 -0.179688 1.472656 -1.003906 1.796875 -1.890625 C 2.117188 -2.773438 2.359375 -3.648438 2.515625 -4.515625 C 2.660156 -5.390625 2.71875 -6.269531 2.6875 -7.15625 C 2.65625 -8.039062 2.546875 -8.863281 2.359375 -9.625 C 2.179688 -10.382812 1.941406 -11.007812 1.640625 -11.5 L 3.875 -11.5 C 5.039062 -9.5625 5.398438 -7.234375 4.953125 -4.515625 Z M 4.953125 -4.515625 "/></g></g></g><path stroke-linecap="butt" transform="matrix(0.748005, 0.000000000000000206, -0.000000000000000206, 0.748005, 26.609536, 156.408806)" fill="none" stroke-linejoin="miter" d="M -0.000215434 4.002028 L 206.30891 4.002028 " stroke="#e80f17" stroke-width="8" stroke-opacity="1" stroke-miterlimit="4"/></svg>